<svg width="331" height="173" viewBox="0 0 331 173" fill="none" xmlns="http://www.w3.org/2000/svg">
<path opacity="0.1" d="M254.119 263.555C266.463 277.213 287.877 278.429 298.789 263.603C311.805 245.919 321.239 225.728 326.421 204.162C334.213 171.729 332.023 137.697 320.137 106.529C308.252 75.3619 287.225 48.5134 259.815 29.504C232.405 10.4946 199.89 0.21159 166.534 0.00324924C133.177 -0.205091 100.537 9.67092 72.8911 28.3364C45.2455 47.0019 23.8854 73.5857 11.6113 104.602C-0.662737 135.619 -3.27785 169.621 4.10891 202.149C9.0205 223.778 18.2017 244.085 30.9955 261.93C41.7217 276.892 63.1496 275.943 75.6629 262.44C88.1761 248.938 86.7179 227.954 78.1167 211.677C74.0871 204.052 71.0508 195.89 69.1197 187.386C64.7085 167.961 66.2702 147.655 73.6 129.133C80.9299 110.61 93.6858 94.7348 110.195 83.588C126.705 72.4413 146.197 66.5434 166.117 66.6679C186.037 66.7923 205.454 72.9331 221.823 84.2853C238.192 95.6374 250.749 111.671 257.847 130.284C264.945 148.896 266.253 169.22 261.599 188.589C259.562 197.068 256.424 205.191 252.3 212.765C243.496 228.933 241.776 249.897 254.119 263.555Z" fill="#D9D9D9"/>
</svg>
