<svg width="331" height="238" viewBox="0 0 331 238" fill="none" xmlns="http://www.w3.org/2000/svg">
<path opacity="0.1" d="M76.8808 -25.5549C64.5372 -39.2128 43.1229 -40.4295 32.2106 -25.603C19.1948 -7.91869 9.76072 12.2716 4.57932 33.8375C-3.21318 66.2715 -1.02302 100.303 10.8626 131.471C22.7483 162.638 43.7747 189.487 71.185 208.496C98.5953 227.505 131.11 237.788 164.466 237.997C197.823 238.205 230.463 228.329 258.109 209.664C285.754 190.998 307.115 164.414 319.389 133.398C331.663 102.381 334.278 68.3795 326.891 35.8507C321.979 14.2217 312.798 -6.08482 300.005 -23.9304C289.278 -38.892 267.85 -37.9429 255.337 -24.4403C242.824 -10.9376 244.282 10.0464 252.883 26.3228C256.913 33.9481 259.949 42.1097 261.88 50.6136C266.292 70.0393 264.73 90.3445 257.4 108.867C250.07 127.39 237.314 143.265 220.805 154.412C204.295 165.559 184.803 171.457 164.883 171.332C144.963 171.208 125.546 165.067 109.177 153.715C92.8075 142.363 80.2509 126.329 73.1529 107.716C66.055 89.1036 64.7471 68.7804 69.4006 49.4114C71.4378 40.9322 74.5758 32.8092 78.7003 25.2348C87.5042 9.06718 89.2244 -11.897 76.8808 -25.5549Z" fill="#D9D9D9"/>
</svg>
