<svg width="14" height="19" viewBox="0 0 14 19" fill="none" xmlns="http://www.w3.org/2000/svg">
<path d="M0 7C0 5.13872 0 4.20808 0.244717 3.45492C0.739307 1.93273 1.93273 0.739307 3.45492 0.244717C4.20808 0 5.13872 0 7 0C8.86128 0 9.79192 0 10.5451 0.244717C12.0673 0.739307 13.2607 1.93273 13.7553 3.45492C14 4.20808 14 5.13872 14 7V14.3874C14 16.3045 14 17.2631 13.658 17.77C13.2403 18.3893 12.5122 18.7242 11.7701 18.6383C11.1627 18.568 10.4349 17.9442 8.97931 16.6965C8.33858 16.1474 8.01821 15.8728 7.66631 15.7484C7.23517 15.5961 6.76483 15.5961 6.33369 15.7484C5.98179 15.8728 5.66142 16.1474 5.02069 16.6965C3.5651 17.9442 2.8373 18.568 2.22986 18.6383C1.48778 18.7242 0.759708 18.3893 0.341956 17.77C0 17.2631 0 16.3045 0 14.3874V7Z" fill="#FF9100"/>
</svg>
