<svg width="16" height="16" viewBox="0 0 16 16" fill="none" xmlns="http://www.w3.org/2000/svg">
<path fill-rule="evenodd" clip-rule="evenodd" d="M12.6209 15.2961C11.9933 15.5 11.2177 15.5 9.66667 15.5H6.33333C4.78227 15.5 4.00673 15.5 3.3791 15.2961C2.1106 14.8839 1.11609 13.8894 0.703931 12.6209C0.5 11.9933 0.5 9.55107 0.5 8V2.7449C0.5 1.98331 0.5 1.60251 0.620038 1.30874C0.739181 1.01715 0.938798 0.781892 1.1862 0.641473C1.43546 0.5 1.75856 0.5 2.40476 0.5C4.02026 0.5 4.82801 0.5 5.45116 0.853683C6.06967 1.20473 6.56871 1.79289 6.86657 2.52184L6.87442 2.54104C7.15712 3.23265 7.753 3.83202 8.50014 3.83604C10.1202 3.84476 12.1418 3.88161 12.6209 4.03726C13.8894 4.44942 14.8839 5.44394 15.2961 6.71243C15.5 7.34007 15.5 8.1156 15.5 9.66667C15.5 11.2177 15.5 11.9933 15.2961 12.6209C14.8839 13.8894 13.8894 14.8839 12.6209 15.2961ZM8.625 7.16667C8.625 6.82149 8.34518 6.54167 8 6.54167C7.65482 6.54167 7.375 6.82149 7.375 7.16667V9.04167H5.5C5.15482 9.04167 4.875 9.32149 4.875 9.66667C4.875 10.0118 5.15482 10.2917 5.5 10.2917H7.375V12.1667C7.375 12.5118 7.65482 12.7917 8 12.7917C8.34518 12.7917 8.625 12.5118 8.625 12.1667V10.2917H10.5C10.8452 10.2917 11.125 10.0118 11.125 9.66667C11.125 9.32149 10.8452 9.04167 10.5 9.04167H8.625V7.16667Z" fill="#979797"/>
</svg>
