<svg width="66" height="67" viewBox="0 0 66 67" fill="none" xmlns="http://www.w3.org/2000/svg">
<path fill-rule="evenodd" clip-rule="evenodd" d="M22.2692 4.6384C28.5425 -0.937897 37.996 -0.937897 44.2693 4.6384L44.9195 5.21635C46.7041 6.8026 49.0087 7.67881 51.3963 7.67881C59.277 7.67881 65.6655 14.0673 65.6655 21.948V37.1981C65.6655 42.7325 65.6655 47.0708 65.2926 50.5127C64.9121 54.0252 64.1216 56.8712 62.3561 59.3011C61.2873 60.7722 59.9936 62.0659 58.5226 63.1347C56.0926 64.9001 53.2466 65.6906 49.7342 66.0712C46.2923 66.4441 41.9538 66.4441 36.4193 66.4441H30.119C24.5846 66.4441 20.2463 66.4441 16.8044 66.0712C13.2919 65.6906 10.4459 64.9001 8.01599 63.1347C6.54492 62.0659 5.25124 60.7722 4.18244 59.3011C2.41699 56.8712 1.62647 54.0252 1.24591 50.5127C0.873004 47.0708 0.873023 42.7324 0.873047 37.1978V37.1978V21.948C0.873047 14.0673 7.26159 7.67881 15.1422 7.67881C17.5299 7.67881 19.8345 6.8026 21.619 5.21635L22.2692 4.6384ZM33.2693 22.7468C25.3635 22.7468 18.9547 29.1557 18.9547 37.0614C18.9547 44.9672 25.3635 51.3761 33.2693 51.3761C41.175 51.3761 47.5839 44.9672 47.5839 37.0614C47.5839 29.1557 41.175 22.7468 33.2693 22.7468ZM48.3373 21.9936C48.3373 23.6579 49.6865 25.0072 51.3509 25.0072C53.0153 25.0072 54.3645 23.6579 54.3645 21.9936C54.3645 20.3292 53.0153 18.98 51.3509 18.98C49.6865 18.98 48.3373 20.3292 48.3373 21.9936ZM23.4751 37.0614C23.4751 31.6523 27.8601 27.2672 33.2693 27.2672C38.6785 27.2672 43.0635 31.6523 43.0635 37.0614C43.0635 42.4706 38.6785 46.8557 33.2693 46.8557C27.8601 46.8557 23.4751 42.4706 23.4751 37.0614ZM33.2709 31.9211C33.8191 31.9211 34.2636 32.3656 34.2636 32.9138V35.892H37.2418C37.79 35.892 38.2345 36.3364 38.2345 36.8847C38.2345 37.433 37.79 37.8774 37.2418 37.8774H34.2636V40.8556C34.2636 41.4038 33.8191 41.8483 33.2709 41.8483C32.7226 41.8483 32.2782 41.4038 32.2782 40.8556V37.8774H29.3C28.7518 37.8774 28.3073 37.433 28.3073 36.8847C28.3073 36.3364 28.7518 35.892 29.3 35.892H32.2782V32.9138C32.2782 32.3656 32.7226 31.9211 33.2709 31.9211Z" fill="#979797"/>
</svg>
