<svg width="43" height="42" viewBox="0 0 43 42" fill="none" xmlns="http://www.w3.org/2000/svg">
<g opacity="0.5">
<circle cx="21.5" cy="21" r="20" stroke="#4D4D4D" stroke-width="1.48148" stroke-linecap="round" stroke-dasharray="5.93 5.93"/>
<circle cx="21.6481" cy="21.1481" r="8.14815" fill="#4D4D4D"/>
<path fill-rule="evenodd" clip-rule="evenodd" d="M22.0852 18.0929C22.0852 17.8518 21.8898 17.6564 21.6487 17.6564C21.4076 17.6564 21.2121 17.8518 21.2121 18.0929V20.7122H18.5928C18.3517 20.7122 18.1562 20.9077 18.1562 21.1488C18.1562 21.3899 18.3517 21.5853 18.5928 21.5853H21.2121V24.2046C21.2121 24.4457 21.4076 24.6412 21.6487 24.6412C21.8898 24.6412 22.0852 24.4457 22.0852 24.2046V21.5853H24.7045C24.9456 21.5853 25.1411 21.3899 25.1411 21.1488C25.1411 20.9077 24.9456 20.7122 24.7045 20.7122H22.0852V18.0929Z" fill="white"/>
</g>
</svg>
