<svg width="16" height="16" viewBox="0 0 16 16" fill="none" xmlns="http://www.w3.org/2000/svg">
<g clip-path="url(#clip0_7056_34850)">
<path d="M12.3539 8.51216C12.3357 6.48461 14.0099 5.51123 14.0856 5.46377C13.1435 4.08549 11.6774 3.89667 11.1543 3.87445C9.90732 3.74824 8.71988 4.60853 8.08779 4.60853C7.4557 4.60853 6.47828 3.89263 5.44431 3.91283C4.08319 3.93302 2.83011 4.70344 2.12936 5.92118C0.716742 8.3718 1.76888 12.0038 3.14414 13.993C3.81763 14.9654 4.61936 16.0609 5.67352 16.0205C6.68931 15.9801 7.07301 15.3642 8.29882 15.3642C9.52464 15.3642 9.86997 16.0205 10.9433 16.0013C12.0348 15.9801 12.7275 15.0078 13.396 14.0324C14.1674 12.9035 14.4865 11.811 14.5046 11.7534C14.4804 11.7433 12.3761 10.9365 12.3539 8.51216Z" fill="#A3AAAE"/>
<path d="M10.3585 2.55689C10.9223 1.87982 11.3029 0.93837 11.1981 0C10.3859 0.0323242 9.40293 0.53682 8.81978 1.21389C8.29773 1.81227 7.83978 2.77083 7.96388 3.6901C8.86964 3.75972 9.79467 3.23296 10.3585 2.55689Z" fill="#A3AAAE"/>
</g>
<defs>
<clipPath id="clip0_7056_34850">
<rect width="16" height="16" fill="white"/>
</clipPath>
</defs>
</svg>
