<svg width="20" height="20" viewBox="0 0 20 20" fill="none" xmlns="http://www.w3.org/2000/svg">
<path d="M14.6112 8.77334C14.8542 8.52818 14.8524 8.13245 14.6073 7.88946C14.3621 7.64648 13.9664 7.64824 13.7234 7.89341L12.2673 9.36255C11.6764 9.95879 11.2697 10.3678 10.9251 10.6445C10.5903 10.9134 10.3753 11.0056 10.1827 11.0301C10.0618 11.0456 9.93948 11.0456 9.81856 11.0301C9.626 11.0056 9.41099 10.9134 9.07624 10.6445C8.73163 10.3678 8.32493 9.95879 7.73398 9.36255L6.27789 7.89341C6.03491 7.64824 5.63918 7.64648 5.39402 7.88947C5.14885 8.13245 5.14709 8.52818 5.39008 8.77334L6.8724 10.2689C7.43068 10.8323 7.88697 11.2927 8.29353 11.6192C8.71631 11.9587 9.14542 12.2045 9.66052 12.2701C9.88637 12.2989 10.1149 12.2989 10.3408 12.2701C10.8559 12.2045 11.285 11.9587 11.7078 11.6192C12.1143 11.2927 12.5706 10.8323 13.1289 10.269L14.6112 8.77334Z" fill="#979797"/>
</svg>
