<svg width="14" height="18" viewBox="0 0 14 18" fill="none" xmlns="http://www.w3.org/2000/svg">
<path fill-rule="evenodd" clip-rule="evenodd" d="M6.86549 0.875014C5.44359 0.87479 4.57591 0.874653 3.85298 1.10955C2.39421 1.58353 1.25052 2.72722 0.776541 4.18599C0.541645 4.90892 0.541782 5.7766 0.542006 7.1985L0.54202 13.5178C0.542014 14.2926 0.54201 14.9118 0.57957 15.3887C0.616581 15.8585 0.695299 16.3042 0.933844 16.6579C1.41252 17.3675 2.24677 17.7512 3.09707 17.6528C3.52082 17.6038 3.91043 17.3735 4.29126 17.0958C4.67775 16.814 5.14791 16.411 5.73617 15.9068L5.75767 15.8884C6.33333 15.3949 6.4972 15.2682 6.65331 15.213C6.87787 15.1337 7.12284 15.1337 7.34739 15.213C7.50351 15.2682 7.66737 15.3949 8.24303 15.8884L8.26453 15.9068C8.85279 16.411 9.32295 16.814 9.70944 17.0958C10.0903 17.3735 10.4799 17.6038 10.9036 17.6528C11.7539 17.7512 12.5882 17.3675 13.0669 16.6579C13.3054 16.3042 13.3841 15.8586 13.4211 15.3887C13.4587 14.9119 13.4587 14.2926 13.4587 13.5179L13.4587 7.1985C13.4589 5.7766 13.4591 4.90892 13.2242 4.18599C12.7502 2.72722 11.6065 1.58353 10.1477 1.10955C9.42479 0.874653 8.55712 0.87479 7.13522 0.875014H6.86549ZM4.23925 2.29837C4.74901 2.13274 5.40064 2.12503 7.00035 2.12503C8.60007 2.12503 9.2517 2.13274 9.76146 2.29837C10.8397 2.6487 11.685 3.49404 12.0353 4.57226C12.201 5.08202 12.2087 5.73365 12.2087 7.33336V13.4895C12.2087 14.2991 12.2082 14.8688 12.175 15.2905C12.1408 15.7251 12.077 15.89 12.0306 15.9588C11.813 16.2814 11.4338 16.4558 11.0473 16.4111C10.9648 16.4016 10.7981 16.3426 10.4459 16.0858C10.104 15.8365 9.6712 15.4661 9.05652 14.9393L8.97384 14.8683C8.52209 14.4804 8.16979 14.1779 7.76384 14.0344C7.26981 13.8599 6.73089 13.8599 6.23687 14.0344C5.83092 14.1779 5.47862 14.4804 5.02687 14.8683L4.94419 14.9393C4.32951 15.4661 3.89667 15.8365 3.55481 16.0858C3.2026 16.3426 3.03586 16.4016 2.95341 16.4111C2.56691 16.4558 2.1877 16.2814 1.97012 15.9588C1.9237 15.89 1.85994 15.7251 1.82571 15.2905C1.79249 14.8688 1.79202 14.2991 1.79202 13.4895V7.33336C1.79202 5.73365 1.79973 5.08202 1.96536 4.57226C2.3157 3.49404 3.16103 2.6487 4.23925 2.29837Z" fill="white"/>
</svg>
