<svg width="20" height="20" viewBox="0 0 20 20" fill="none" xmlns="http://www.w3.org/2000/svg">
<path fill-rule="evenodd" clip-rule="evenodd" d="M6.25 3.44372C5.38215 3.54662 4.74558 3.74531 4.21756 4.12893C3.86383 4.38593 3.55276 4.697 3.29576 5.05073C2.5 6.14601 2.5 7.70839 2.5 10.8332C2.5 13.9579 2.5 15.5203 3.29576 16.6156C3.55276 16.9693 3.86383 17.2804 4.21756 17.5374C5.31283 18.3332 6.87522 18.3332 10 18.3332C10.6991 18.3332 11.32 18.3332 11.875 18.3243L11.875 18.2658C11.8749 17.5558 11.8749 17.1233 11.934 16.7503C12.2587 14.6999 13.8668 13.0919 15.9171 12.7672C16.2901 12.7081 16.7226 12.7081 17.4326 12.7082L17.4911 12.7082C17.5 12.1533 17.5 11.5325 17.5 10.8336C17.5 7.70878 17.5 6.14601 16.7042 5.05073C16.4472 4.697 16.1362 4.38593 15.7824 4.12893C15.2544 3.74531 14.6178 3.54662 13.75 3.44372V4.1665C13.75 4.85686 13.1904 5.4165 12.5 5.4165C11.8096 5.4165 11.25 4.85686 11.25 4.1665V3.33551C10.8633 3.33317 10.4477 3.33317 10 3.33317C9.55234 3.33317 9.13675 3.33317 8.75 3.33551V4.1665C8.75 4.85686 8.19036 5.4165 7.5 5.4165C6.80964 5.4165 6.25 4.85686 6.25 4.1665V3.44372ZM5.83333 8.33317C6.29357 8.33317 6.66667 7.96007 6.66667 7.49984C6.66667 7.0396 6.29357 6.6665 5.83333 6.6665C5.3731 6.6665 5 7.0396 5 7.49984C5 7.96007 5.3731 8.33317 5.83333 8.33317ZM6.66667 10.8332C6.66667 11.2934 6.29357 11.6665 5.83333 11.6665C5.3731 11.6665 5 11.2934 5 10.8332C5 10.3729 5.3731 9.99984 5.83333 9.99984C6.29357 9.99984 6.66667 10.3729 6.66667 10.8332ZM10 8.33317C10.4602 8.33317 10.8333 7.96007 10.8333 7.49984C10.8333 7.0396 10.4602 6.6665 10 6.6665C9.53976 6.6665 9.16667 7.0396 9.16667 7.49984C9.16667 7.96007 9.53976 8.33317 10 8.33317ZM10.8333 10.8332C10.8333 11.2934 10.4602 11.6665 10 11.6665C9.53976 11.6665 9.16667 11.2934 9.16667 10.8332C9.16667 10.3729 9.53976 9.99984 10 9.99984C10.4602 9.99984 10.8333 10.3729 10.8333 10.8332ZM10 14.9998C10.4602 14.9998 10.8333 14.6267 10.8333 14.1665C10.8333 13.7063 10.4602 13.3332 10 13.3332C9.53976 13.3332 9.16667 13.7063 9.16667 14.1665C9.16667 14.6267 9.53976 14.9998 10 14.9998ZM15 7.49984C15 7.96007 14.6269 8.33317 14.1667 8.33317C13.7064 8.33317 13.3333 7.96007 13.3333 7.49984C13.3333 7.0396 13.7064 6.6665 14.1667 6.6665C14.6269 6.6665 15 7.0396 15 7.49984ZM14.1667 11.6665C14.6269 11.6665 15 11.2934 15 10.8332C15 10.3729 14.6269 9.99984 14.1667 9.99984C13.7064 9.99984 13.3333 10.3729 13.3333 10.8332C13.3333 11.2934 13.7064 11.6665 14.1667 11.6665ZM6.66667 14.1665C6.66667 14.6267 6.29357 14.9998 5.83333 14.9998C5.3731 14.9998 5 14.6267 5 14.1665C5 13.7063 5.3731 13.3332 5.83333 13.3332C6.29357 13.3332 6.66667 13.7063 6.66667 14.1665Z" fill="#666666"/>
<path d="M17.4456 13.9582C16.6869 13.9583 16.3696 13.9611 16.1126 14.0018C14.5972 14.2418 13.4086 15.4303 13.1686 16.9458C13.1279 17.2028 13.1251 17.5201 13.125 18.2787C14.3247 18.2001 15.1351 18.0077 15.7824 17.5374C16.1362 17.2804 16.4472 16.9693 16.7042 16.6156C17.1745 15.9683 17.3669 15.1579 17.4456 13.9582Z" fill="#666666"/>
<path d="M8.125 1.6665C8.125 1.32133 7.84518 1.0415 7.5 1.0415C7.15482 1.0415 6.875 1.32133 6.875 1.6665V4.1665C6.875 4.51168 7.15482 4.7915 7.5 4.7915C7.84518 4.7915 8.125 4.51168 8.125 4.1665V1.6665Z" fill="#666666"/>
<path d="M13.125 1.6665C13.125 1.32133 12.8452 1.0415 12.5 1.0415C12.1548 1.0415 11.875 1.32133 11.875 1.6665V4.1665C11.875 4.51168 12.1548 4.7915 12.5 4.7915C12.8452 4.7915 13.125 4.51168 13.125 4.1665V1.6665Z" fill="#666666"/>
</svg>
