<svg width="24" height="24" viewBox="0 0 24 24" fill="none" xmlns="http://www.w3.org/2000/svg">
<path d="M21.5533 4C21.4625 3.99064 21.3709 3.99064 21.28 4H2.61334C2.49371 4.00185 2.37486 4.01979 2.26001 4.05334L11.8933 13.6467L21.5533 4Z" fill="black"/>
<path d="M22.54 4.92667L12.8333 14.5933C12.5835 14.8417 12.2456 14.9811 11.8933 14.9811C11.5411 14.9811 11.2032 14.8417 10.9533 14.5933L1.33335 5C1.30378 5.10869 1.28809 5.2207 1.28668 5.33333V18.6667C1.28668 19.0203 1.42716 19.3594 1.67721 19.6095C1.92725 19.8595 2.26639 20 2.62002 20H21.2867C21.6403 20 21.9794 19.8595 22.2295 19.6095C22.4795 19.3594 22.62 19.0203 22.62 18.6667V5.33333C22.6147 5.19444 22.5877 5.05722 22.54 4.92667ZM3.53335 18.6667H2.60668V17.7133L7.45335 12.9067L8.39335 13.8467L3.53335 18.6667ZM21.2733 18.6667H20.34L15.48 13.8467L16.42 12.9067L21.2667 17.7133L21.2733 18.6667Z" fill="black"/>
</svg>
