<svg width="18" height="21" viewBox="0 0 18 21" fill="none" xmlns="http://www.w3.org/2000/svg">
<path d="M2.06107 3.95492C2.69469 3.49457 3.45858 3.25614 4.5 3.13266V4C4.5 4.82843 5.17157 5.5 6 5.5C6.82843 5.5 7.5 4.82843 7.5 4V3.00281C7.9641 3 8.46281 3 9 3C9.53719 3 10.0359 3 10.5 3.00281V4C10.5 4.82843 11.1716 5.5 12 5.5C12.8284 5.5 13.5 4.82843 13.5 4V3.13266C14.5414 3.25614 15.3053 3.49457 15.9389 3.95492C16.3634 4.26331 16.7367 4.6366 17.0451 5.06107C17.6094 5.83783 17.8403 6.81038 17.9347 8.25H0.0653361C0.159744 6.81038 0.390566 5.83783 0.954915 5.06107C1.26331 4.6366 1.6366 4.26331 2.06107 3.95492Z" fill="#808080"/>
<path fill-rule="evenodd" clip-rule="evenodd" d="M0.010698 9.74978C0 10.4158 0 11.161 0 12C0 15.7497 0 17.6246 0.954915 18.9389C1.26331 19.3634 1.6366 19.7367 2.06107 20.0451C3.3754 21 5.25027 21 9 21C9.83894 21 10.584 21 11.25 20.9893L11.25 20.9192C11.2499 20.0672 11.2499 19.5482 11.3208 19.1005C11.7105 16.6401 13.6401 14.7105 16.1005 14.3208C16.5482 14.2499 17.0672 14.2499 17.9192 14.25L17.9893 14.25C18 13.584 18 12.8389 18 12C18 11.161 18 10.4158 17.9893 9.74978L17.971 9.75H0.0288086L0.010698 9.74978ZM6 12.25C5.58579 12.25 5.25 12.5858 5.25 13C5.25 13.4142 5.58579 13.75 6 13.75H12C12.4142 13.75 12.75 13.4142 12.75 13C12.75 12.5858 12.4142 12.25 12 12.25H6Z" fill="#808080"/>
<path d="M15.9389 20.0451C15.1622 20.6094 14.1896 20.8403 12.75 20.9347C12.7501 20.0243 12.7535 19.6435 12.8023 19.3352C13.0904 17.5166 14.5166 16.0904 16.3352 15.8023C16.6435 15.7535 17.0243 15.7501 17.9347 15.75C17.8403 17.1896 17.6094 18.1622 17.0451 18.9389C16.7367 19.3634 16.3634 19.7367 15.9389 20.0451Z" fill="#808080"/>
<path d="M6.75 1C6.75 0.585786 6.41421 0.25 6 0.25C5.58579 0.25 5.25 0.585786 5.25 1V4C5.25 4.41421 5.58579 4.75 6 4.75C6.41421 4.75 6.75 4.41421 6.75 4V1Z" fill="#808080"/>
<path d="M12.75 1C12.75 0.585786 12.4142 0.25 12 0.25C11.5858 0.25 11.25 0.585786 11.25 1V4C11.25 4.41421 11.5858 4.75 12 4.75C12.4142 4.75 12.75 4.41421 12.75 4V1Z" fill="#808080"/>
</svg>
