<svg width="30" height="30" viewBox="0 0 30 30" fill="none" xmlns="http://www.w3.org/2000/svg">
<g clip-path="url(#clip0_1272_54376)">
<path d="M10.5377 23.5204L6.06205 25.9618C5.79941 26.105 5.56337 26.281 5.34375 26.4729C7.95318 28.6731 11.3217 30.0004 15.0021 30.0004C18.6553 30.0004 22.0022 28.6929 24.6043 26.5227C24.3643 26.3201 24.1039 26.1378 23.8153 25.994L19.0226 23.598C18.4034 23.2884 18.0122 22.6555 18.0122 21.9633V20.0829C18.147 19.9295 18.3009 19.7325 18.4656 19.4999C19.1188 18.5772 19.613 17.5623 19.9554 16.4976C20.5702 16.308 21.023 15.7402 21.023 15.0655V13.0584C21.023 12.6168 20.8266 12.2223 20.5215 11.9461V9.04458C20.5215 9.04458 21.1175 4.5293 15.0026 4.5293C8.88771 4.5293 9.48375 9.04458 9.48375 9.04458V11.9461C9.17809 12.2223 8.98224 12.6168 8.98224 13.0584V15.0655C8.98224 15.5942 9.26016 16.0595 9.6762 16.3284C10.1777 18.5116 11.4909 20.0829 11.4909 20.0829V21.9168C11.4904 22.5848 11.1247 23.2001 10.5377 23.5204Z" fill="#E7ECED"/>
<path d="M15.2564 0.00223368C6.97355 -0.139276 0.143745 6.46072 0.00223515 14.7436C-0.0781422 19.44 2.01507 23.6609 5.3479 26.4679C5.56582 26.2777 5.79959 26.1034 6.0594 25.9619L10.5351 23.5205C11.122 23.2002 11.4877 22.5849 11.4877 21.9158V20.0819C11.4877 20.0819 10.1739 18.5105 9.67299 16.3273C9.25752 16.0585 8.97903 15.5937 8.97903 15.0645V13.0573C8.97903 12.6158 9.17544 12.2213 9.48054 11.9451V9.04355C9.48054 9.04355 8.8845 4.52827 14.9994 4.52827C21.1143 4.52827 20.5183 9.04355 20.5183 9.04355V11.9451C20.8239 12.2213 21.0198 12.6158 21.0198 13.0573V15.0645C21.0198 15.7392 20.567 16.3069 19.9522 16.4966C19.6098 17.5613 19.1156 18.5762 18.4624 19.4988C18.2977 19.7315 18.1437 19.9285 18.009 20.0819V21.9622C18.009 22.6545 18.4002 23.2879 19.0194 23.597L23.812 25.993C24.0996 26.1368 24.3594 26.3185 24.5988 26.5205C27.8309 23.8251 29.919 19.7949 29.9966 15.2564C30.1392 6.97355 23.5398 0.143743 15.2564 0.00223368Z" fill="#556080"/>
</g>
<defs>
<clipPath id="clip0_1272_54376">
<rect width="30" height="30" fill="white"/>
</clipPath>
</defs>
</svg>
