<svg width="22" height="19" viewBox="0 0 22 19" fill="none" xmlns="http://www.w3.org/2000/svg">
<path d="M19.4715 3.12129C19.4715 2.87416 19.6719 2.67383 19.919 2.67383C20.1661 2.67383 20.3665 2.87416 20.3665 3.12129V5.80607C20.3665 6.0532 20.1661 6.25354 19.919 6.25354C19.6719 6.25354 19.4715 6.0532 19.4715 5.80607V3.12129Z" fill="white"/>
<path d="M21.2614 4.01622C21.5085 4.01622 21.7089 4.21656 21.7089 4.46368C21.7089 4.71081 21.5085 4.91115 21.2614 4.91115H18.5766C18.3295 4.91115 18.1292 4.71081 18.1292 4.46368C18.1292 4.21656 18.3295 4.01622 18.5766 4.01622L21.2614 4.01622Z" fill="white"/>
<path d="M11.9188 1.28183C13.6006 0.215033 16.3165 -0.793751 18.662 1.59814C18.8476 1.78743 19.0165 1.98257 19.1692 2.18296C18.8941 2.40306 18.7179 2.74161 18.7179 3.12131V3.26262H18.5766C17.9133 3.26262 17.3755 3.80036 17.3755 4.4637C17.3755 5.12705 17.9133 5.66479 18.5766 5.66479H18.7179V5.8061C18.7179 6.46944 19.2557 7.00718 19.919 7.00718C20.0436 7.00718 20.1638 6.98821 20.2767 6.95301C19.5078 12.3312 13.5165 18.2173 10.3104 18.2173C5.93925 18.2173 -3.60901 7.27609 1.95877 1.59814C4.30423 -0.793725 7.02021 0.215046 8.70195 1.28184C9.65221 1.88462 10.9686 1.88462 11.9188 1.28183Z" fill="white"/>
</svg>
