<svg width="175" height="57" viewBox="0 0 175 57" fill="none" xmlns="http://www.w3.org/2000/svg">
<path d="M28.7746 0C30.9679 0 33.1397 0.434637 35.166 1.2791C37.1924 2.12356 39.0336 3.3613 40.5845 4.92165C42.1353 6.48201 43.3656 8.33442 44.2049 10.3731C45.0443 12.4118 45.4763 14.5969 45.4763 16.8036C45.4763 19.0103 45.0443 21.1953 44.2049 23.234C43.3656 25.2727 42.1353 27.1251 40.5845 28.6855C39.0336 30.2459 37.1924 31.4836 35.166 32.3281C33.1397 33.1725 30.9679 33.6072 28.7746 33.6072H14.3902C14.0887 33.6072 13.79 33.5474 13.5114 33.4313C13.2328 33.3152 12.9796 33.145 12.7664 32.9304C12.5531 32.7159 12.384 32.4612 12.2686 32.1809C12.1532 31.9005 12.0938 31.6001 12.0938 31.2967V16.8036C12.0938 12.347 13.8534 8.07294 16.9856 4.92165C20.1177 1.77037 24.3659 0 28.7954 0L28.7746 0Z" fill="#FF9100"/>
<path d="M14.4219 35.6777H22.6761C24.0657 35.6777 25.4418 35.9515 26.7257 36.4833C28.0096 37.0151 29.1762 37.7946 30.1589 38.7772C31.1415 39.7599 31.921 40.9265 32.4528 42.2104C32.9846 43.4943 33.2584 44.8704 33.2584 46.26C33.2584 49.0666 32.1434 51.7583 30.1589 53.7429C28.1743 55.7274 25.4827 56.8423 22.6761 56.8423C19.8695 56.8423 17.1778 55.7274 15.1932 53.7429C13.2087 51.7583 12.0938 49.0666 12.0938 46.26V38.0058C12.0938 37.3884 12.339 36.7962 12.7756 36.3596C13.2122 35.923 13.8044 35.6777 14.4219 35.6777Z" fill="#FF9100"/>
<path d="M4.81009 39.3097C7.46663 39.3097 9.62018 37.143 9.62018 34.4703C9.62018 31.7975 7.46663 29.6309 4.81009 29.6309C2.15355 29.6309 0 31.7975 0 34.4703C0 37.143 2.15355 39.3097 4.81009 39.3097Z" fill="white"/>
<path d="M57.2285 35.6001H50.597V39.5317H57.0391V42.658H50.597V49.0527H47.3285V32.4738H57.2285V35.6001ZM67.2838 37.2106H70.339V49.0527H67.2838V47.7264C66.5417 48.8317 65.3654 49.3843 63.7548 49.3843C62.4601 49.3843 61.3864 48.9501 60.5338 48.0817C59.6969 47.2133 59.2785 46.0133 59.2785 44.4817V37.2106H62.3338V44.1027C62.3338 44.8922 62.5469 45.5001 62.9733 45.9264C63.3996 46.3369 63.968 46.5422 64.6785 46.5422C65.468 46.5422 66.0996 46.2975 66.5733 45.808C67.0469 45.3185 67.2838 44.5843 67.2838 43.6054V37.2106ZM79.7215 36.879C81.0162 36.879 82.082 37.3133 82.9189 38.1817C83.7715 39.0501 84.1978 40.2501 84.1978 41.7817V49.0527H81.1426V42.1606C81.1426 41.3712 80.9294 40.7712 80.5031 40.3606C80.0768 39.9343 79.5083 39.7212 78.7978 39.7212C78.0083 39.7212 77.3768 39.9659 76.9031 40.4554C76.4294 40.9448 76.1926 41.679 76.1926 42.658V49.0527H73.1373V37.2106H76.1926V38.5369C76.9347 37.4317 78.111 36.879 79.7215 36.879Z" fill="white"/>
<path d="M92.4434 49.3843C90.6592 49.3843 89.1671 48.7843 87.9671 47.5843C86.7829 46.3843 86.1908 44.9001 86.1908 43.1317C86.1908 41.3633 86.7829 39.879 87.9671 38.679C89.1671 37.479 90.6592 36.879 92.4434 36.879C93.5961 36.879 94.6461 37.1554 95.5934 37.708C96.5408 38.2606 97.2592 39.0027 97.7487 39.9343L95.1198 41.4738C94.8829 40.9843 94.5198 40.5975 94.0303 40.3133C93.5566 40.029 93.0198 39.8869 92.4198 39.8869C91.504 39.8869 90.7461 40.1948 90.1461 40.8106C89.5461 41.4106 89.2461 42.1843 89.2461 43.1317C89.2461 44.0633 89.5461 44.8369 90.1461 45.4527C90.7461 46.0527 91.504 46.3527 92.4198 46.3527C93.0355 46.3527 93.5803 46.2185 94.054 45.9501C94.5434 45.6659 94.9066 45.279 95.1434 44.7896L97.7961 46.3054C97.275 47.2369 96.5408 47.9869 95.5934 48.5554C94.6461 49.108 93.5961 49.3843 92.4434 49.3843ZM109.316 47.5843C108.101 48.7843 106.616 49.3843 104.864 49.3843C103.111 49.3843 101.627 48.7843 100.411 47.5843C99.2111 46.3685 98.6111 44.8843 98.6111 43.1317C98.6111 41.379 99.2111 39.9027 100.411 38.7027C101.627 37.4869 103.111 36.879 104.864 36.879C106.616 36.879 108.101 37.4869 109.316 38.7027C110.532 39.9027 111.14 41.379 111.14 43.1317C111.14 44.8843 110.532 46.3685 109.316 47.5843ZM102.566 45.4764C103.182 46.0922 103.948 46.4001 104.864 46.4001C105.78 46.4001 106.545 46.0922 107.161 45.4764C107.777 44.8606 108.085 44.079 108.085 43.1317C108.085 42.1843 107.777 41.4027 107.161 40.7869C106.545 40.1712 105.78 39.8633 104.864 39.8633C103.948 39.8633 103.182 40.1712 102.566 40.7869C101.966 41.4027 101.666 42.1843 101.666 43.1317C101.666 44.079 101.966 44.8606 102.566 45.4764ZM119.874 36.879C121.168 36.879 122.234 37.3133 123.071 38.1817C123.924 39.0501 124.35 40.2501 124.35 41.7817V49.0527H121.295V42.1606C121.295 41.3712 121.082 40.7712 120.655 40.3606C120.229 39.9343 119.66 39.7212 118.95 39.7212C118.16 39.7212 117.529 39.9659 117.055 40.4554C116.582 40.9448 116.345 41.679 116.345 42.658V49.0527H113.289V37.2106H116.345V38.5369C117.087 37.4317 118.263 36.879 119.874 36.879ZM133.543 36.879C134.838 36.879 135.903 37.3133 136.74 38.1817C137.593 39.0501 138.019 40.2501 138.019 41.7817V49.0527H134.964V42.1606C134.964 41.3712 134.751 40.7712 134.325 40.3606C133.898 39.9343 133.33 39.7212 132.619 39.7212C131.83 39.7212 131.198 39.9659 130.725 40.4554C130.251 40.9448 130.014 41.679 130.014 42.658V49.0527H126.959V37.2106H130.014V38.5369C130.756 37.4317 131.932 36.879 133.543 36.879ZM143.21 44.3869C143.62 45.8712 144.733 46.6133 146.549 46.6133C147.718 46.6133 148.602 46.2185 149.202 45.429L151.665 46.8501C150.496 48.5396 148.775 49.3843 146.502 49.3843C144.544 49.3843 142.973 48.7922 141.789 47.608C140.604 46.4238 140.012 44.9317 140.012 43.1317C140.012 41.3475 140.596 39.8633 141.765 38.679C142.933 37.479 144.433 36.879 146.265 36.879C148.002 36.879 149.431 37.479 150.552 38.679C151.689 39.879 152.257 41.3633 152.257 43.1317C152.257 43.5264 152.218 43.9448 152.139 44.3869H143.21ZM143.162 42.0185H149.202C149.028 41.2133 148.665 40.6133 148.112 40.2185C147.575 39.8238 146.96 39.6264 146.265 39.6264C145.444 39.6264 144.765 39.8396 144.228 40.2659C143.691 40.6764 143.336 41.2606 143.162 42.0185ZM159.934 49.3843C158.15 49.3843 156.658 48.7843 155.458 47.5843C154.274 46.3843 153.682 44.9001 153.682 43.1317C153.682 41.3633 154.274 39.879 155.458 38.679C156.658 37.479 158.15 36.879 159.934 36.879C161.087 36.879 162.137 37.1554 163.084 37.708C164.032 38.2606 164.75 39.0027 165.239 39.9343L162.611 41.4738C162.374 40.9843 162.011 40.5975 161.521 40.3133C161.047 40.029 160.511 39.8869 159.911 39.8869C158.995 39.8869 158.237 40.1948 157.637 40.8106C157.037 41.4106 156.737 42.1843 156.737 43.1317C156.737 44.0633 157.037 44.8369 157.637 45.4527C158.237 46.0527 158.995 46.3527 159.911 46.3527C160.526 46.3527 161.071 46.2185 161.545 45.9501C162.034 45.6659 162.397 45.279 162.634 44.7896L165.287 46.3054C164.766 47.2369 164.032 47.9869 163.084 48.5554C162.137 49.108 161.087 49.3843 159.934 49.3843ZM173.676 40.1475H171V45.0738C171 45.4843 171.103 45.7843 171.308 45.9738C171.513 46.1633 171.813 46.2738 172.208 46.3054C172.603 46.3212 173.092 46.3133 173.676 46.2817V49.0527C171.576 49.2896 170.092 49.0922 169.224 48.4606C168.371 47.8291 167.945 46.7001 167.945 45.0738V40.1475H165.884V37.2106H167.945V34.8185L171 33.8948V37.2106H173.676V40.1475Z" fill="#FF9100"/>
</svg>
