<svg width="224" height="279" viewBox="0 0 224 279" fill="none" xmlns="http://www.w3.org/2000/svg">
<path d="M141.621 0.0273438C152.353 0.0273437 162.979 2.15398 172.894 6.28583C182.81 10.4177 191.819 16.4738 199.407 24.1085C206.996 31.7431 213.016 40.8068 217.122 50.782C221.229 60.7571 223.343 71.4485 223.343 82.2455C223.343 93.0425 221.229 103.734 217.122 113.709C213.016 123.684 206.996 132.748 199.407 140.383C191.819 148.017 182.81 154.073 172.894 158.205C162.979 162.337 152.353 164.464 141.621 164.464H71.2369C69.7612 164.464 68.3 164.171 66.9367 163.603C65.5734 163.035 64.3346 162.202 63.2912 161.153C62.2478 160.103 61.4201 158.856 60.8554 157.485C60.2907 156.113 60 154.643 60 153.159V82.2455C60 60.4399 68.61 39.5274 83.936 24.1085C99.262 8.68959 120.048 0.0273438 141.723 0.0273438L141.621 0.0273438Z" fill="#FF9100"/>
<path d="M71.3916 174.602H111.78C118.58 174.602 125.313 175.941 131.595 178.543C137.878 181.145 143.586 184.959 148.394 189.767C153.202 194.575 157.016 200.283 159.619 206.565C162.221 212.847 163.56 219.58 163.56 226.38C163.56 240.112 158.105 253.282 148.394 262.992C138.683 272.703 125.513 278.158 111.78 278.158C98.0471 278.158 84.8767 272.703 75.166 262.992C65.4554 253.282 60 240.112 60 226.38V185.993C60 182.972 61.2002 180.074 63.3365 177.938C65.4729 175.802 68.3704 174.602 71.3916 174.602Z" fill="#FF9100"/>
<path d="M24.3565 192.365C37.3551 192.365 47.8926 181.764 47.8926 168.687C47.8926 155.609 37.3551 145.008 24.3565 145.008C11.3578 145.008 0.820312 155.609 0.820312 168.687C0.820312 181.764 11.3578 192.365 24.3565 192.365Z" fill="white"/>
</svg>
