<svg width="16" height="16" viewBox="0 0 16 16" fill="none" xmlns="http://www.w3.org/2000/svg">
<g clip-path="url(#clip0_7056_34842)">
<path d="M15.04 8.16663C15.04 7.64663 14.9933 7.14663 14.9067 6.66663H8V9.50329H11.9467C11.7767 10.42 11.26 11.1966 10.4833 11.7166V13.5566H12.8533C14.24 12.28 15.04 10.4 15.04 8.16663Z" fill="#4285F4"/>
<path d="M8.0006 15.3333C9.9806 15.3333 11.6406 14.6766 12.8539 13.5566L10.4839 11.7166C9.82727 12.1566 8.98727 12.4166 8.0006 12.4166C6.0906 12.4166 4.47393 11.1266 3.89727 9.39331H1.44727V11.2933C2.65393 13.69 5.13393 15.3333 8.0006 15.3333Z" fill="#34A853"/>
<path d="M3.89602 9.39333C3.74935 8.95333 3.66602 8.48333 3.66602 8C3.66602 7.51667 3.74935 7.04666 3.89602 6.60667V4.70667H1.44602C0.932682 5.72857 0.665563 6.85641 0.666016 8C0.666016 9.18333 0.94935 10.3033 1.44602 11.2933L3.89602 9.39333Z" fill="#FBBC05"/>
<path d="M8.0006 3.58329C9.07727 3.58329 10.0439 3.95329 10.8039 4.67996L12.9073 2.57663C11.6373 1.39329 9.97727 0.666626 8.0006 0.666626C5.13393 0.666626 2.65393 2.30996 1.44727 4.70663L3.89727 6.60663C4.47393 4.87329 6.0906 3.58329 8.0006 3.58329Z" fill="#EA4335"/>
</g>
<defs>
<clipPath id="clip0_7056_34842">
<rect width="16" height="16" fill="white"/>
</clipPath>
</defs>
</svg>
