<svg width="20" height="20" viewBox="0 0 20 20" fill="none" xmlns="http://www.w3.org/2000/svg">
<path d="M3.30193 6.47507C3.14527 7.11301 3.03085 7.93684 2.87167 9.08292C2.50819 11.7 2.32645 13.0085 2.72606 14.0248C3.07688 14.917 3.72462 15.6609 4.56006 16.1311C5.51171 16.6667 6.83278 16.6667 9.47493 16.6667H10.8284C13.4706 16.6667 14.7917 16.6667 15.7433 16.1311C16.5788 15.6609 17.2265 14.917 17.5773 14.0248C17.9769 13.0085 17.7952 11.7 17.4317 9.08292C17.2589 7.83823 17.1388 6.97362 16.96 6.31443L16.3513 6.92313C14.9911 8.28337 13.9251 9.34935 12.9816 10.0693C12.0158 10.8061 11.1052 11.239 10.0507 11.239C8.99612 11.239 8.08551 10.8061 7.11973 10.0693C6.17618 9.34935 5.11021 8.28337 3.74999 6.92313L3.30193 6.47507Z" fill="#979797"/>
<path d="M3.81225 5.21763L4.60005 6.00543C6.00143 7.40681 7.00895 8.41245 7.87796 9.07548C8.73254 9.72751 9.37932 9.98904 10.0507 9.98904C10.722 9.98904 11.3688 9.72751 12.2234 9.07548C13.0924 8.41245 14.0999 7.40681 15.5013 6.00542L16.4094 5.09734C15.986 4.49758 15.411 4.01928 14.7416 3.7124C13.9148 3.33337 12.886 3.33337 10.8284 3.33337H9.47495C7.41741 3.33337 6.38864 3.33337 5.56183 3.7124C4.84824 4.03953 4.24189 4.56144 3.81225 5.21763Z" fill="#979797"/>
</svg>
