<svg width="20" height="20" viewBox="0 0 20 20" fill="none" xmlns="http://www.w3.org/2000/svg">
<path d="M10 13.75C9.25832 13.75 8.5333 13.5301 7.91661 13.118C7.29993 12.706 6.81928 12.1203 6.53545 11.4351C6.25162 10.7498 6.17736 9.99584 6.32206 9.26841C6.46675 8.54098 6.8239 7.8728 7.34835 7.34835C7.8728 6.8239 8.54098 6.46675 9.26841 6.32206C9.99584 6.17736 10.7498 6.25162 11.4351 6.53545C12.1203 6.81928 12.706 7.29993 13.118 7.91661C13.5301 8.5333 13.75 9.25832 13.75 10C13.7489 10.9942 13.3535 11.9474 12.6504 12.6504C11.9474 13.3535 10.9942 13.7489 10 13.75ZM10 7.91667C9.58796 7.91667 9.18517 8.03885 8.84256 8.26777C8.49996 8.49669 8.23293 8.82206 8.07525 9.20274C7.91757 9.58342 7.87631 10.0023 7.9567 10.4064C8.03708 10.8106 8.2355 11.1818 8.52686 11.4731C8.81822 11.7645 9.18944 11.9629 9.59356 12.0433C9.99769 12.1237 10.4166 12.0824 10.7973 11.9248C11.1779 11.7671 11.5033 11.5 11.7322 11.1574C11.9611 10.8148 12.0833 10.412 12.0833 10C12.0827 9.44767 11.863 8.91815 11.4724 8.52759C11.0819 8.13704 10.5523 7.91733 10 7.91667Z" fill="#979797"/>
<path d="M9.99935 18.3334C8.35118 18.3334 6.74001 17.8446 5.3696 16.9289C3.99919 16.0133 2.93109 14.7118 2.30036 13.1891C1.66963 11.6663 1.5046 9.99078 1.82614 8.37427C2.14769 6.75776 2.94136 5.27291 4.1068 4.10747C5.27223 2.94203 6.75709 2.14836 8.3736 1.82681C9.99011 1.50527 11.6657 1.6703 13.1884 2.30103C14.7111 2.93176 16.0126 3.99986 16.9283 5.37027C17.8439 6.74068 18.3327 8.35185 18.3327 10V10.625C18.3327 11.4538 18.0034 12.2487 17.4174 12.8347C16.8313 13.4208 16.0365 13.75 15.2077 13.75C14.3789 13.75 13.584 13.4208 12.998 12.8347C12.4119 12.2487 12.0827 11.4538 12.0827 10.625V7.08336C12.0827 6.86234 12.1705 6.65038 12.3268 6.4941C12.483 6.33782 12.695 6.25002 12.916 6.25002C13.137 6.25002 13.349 6.33782 13.5053 6.4941C13.6616 6.65038 13.7494 6.86234 13.7494 7.08336V10.625C13.7494 11.0118 13.903 11.3827 14.1765 11.6562C14.45 11.9297 14.8209 12.0834 15.2077 12.0834C15.5945 12.0834 15.9654 11.9297 16.2389 11.6562C16.5124 11.3827 16.666 11.0118 16.666 10.625V10C16.6661 8.53246 16.1818 7.10588 15.2885 5.94156C14.3951 4.77724 13.1425 3.94024 11.7249 3.56038C10.3074 3.18052 8.80409 3.27902 7.44823 3.84062C6.09236 4.40221 4.95969 5.39551 4.22589 6.66645C3.49209 7.93739 3.19817 9.41495 3.38971 10.87C3.58125 12.325 4.24756 13.6761 5.28528 14.7139C6.323 15.7516 7.67414 16.4179 9.12916 16.6095C10.5842 16.801 12.0617 16.5071 13.3327 15.7734C13.4275 15.7186 13.5322 15.6831 13.6407 15.6689C13.7493 15.6546 13.8596 15.6619 13.9653 15.6902C14.0711 15.7186 14.1702 15.7675 14.257 15.8342C14.3439 15.9008 14.4167 15.9839 14.4714 16.0788C14.5262 16.1736 14.5617 16.2783 14.5759 16.3868C14.5902 16.4954 14.5829 16.6057 14.5546 16.7114C14.5262 16.8171 14.4773 16.9163 14.4106 17.0031C14.344 17.0899 14.2608 17.1628 14.166 17.2175C12.8988 17.948 11.462 18.3328 9.99935 18.3334Z" fill="#979797"/>
</svg>
