<svg width="20" height="20" viewBox="0 0 20 20" fill="none" xmlns="http://www.w3.org/2000/svg">
<path d="M6.75986 2.47921C5.88312 1.6736 4.53549 1.6736 3.65875 2.47921C3.62284 2.5122 3.58451 2.55054 3.53474 2.60033L2.78683 3.34824C2.03423 4.10083 1.7183 5.18576 1.94919 6.22475C3.25916 12.1196 7.86294 16.7234 13.7578 18.0334C14.7968 18.2643 15.8817 17.9483 16.6343 17.1957L17.3822 16.4479C17.432 16.3981 17.4704 16.3597 17.5034 16.3238C18.309 15.4471 18.309 14.0995 17.5034 13.2227C17.4704 13.1868 17.432 13.1484 17.3822 13.0986L16.1578 11.8742C15.3077 11.0242 14.0239 10.781 12.9219 11.2614C12.291 11.5364 11.556 11.3972 11.0693 10.9106L9.07199 8.91324C8.58532 8.42657 8.44614 7.69161 8.72115 7.06069C9.20154 5.95864 8.95841 4.67487 8.10833 3.82478L6.88388 2.60034C6.8341 2.55055 6.79577 2.5122 6.75986 2.47921Z" fill="#979797"/>
</svg>
