<svg width="41" height="41" viewBox="0 0 41 41" fill="none" xmlns="http://www.w3.org/2000/svg">
<circle cx="20.3516" cy="21" r="20" fill="#333333"/>
<path d="M20.3509 12.6666C18.1648 12.6666 16.3926 14.4388 16.3926 16.625C16.3926 18.8111 18.1648 20.5833 20.3509 20.5833C22.537 20.5833 24.3092 18.8111 24.3092 16.625C24.3092 14.4388 22.537 12.6666 20.3509 12.6666Z" fill="#4D4D4D"/>
<path d="M17.8509 21.8333C15.6648 21.8333 13.8926 23.6055 13.8926 25.7916C13.8926 27.9778 15.6648 29.75 17.8509 29.75H22.8509C25.037 29.75 26.8092 27.9778 26.8092 25.7916C26.8092 23.6055 25.037 21.8333 22.8509 21.8333H17.8509Z" fill="#4D4D4D"/>
<circle cx="32.4997" cy="8.14815" r="8.14815" fill="#4D4D4D"/>
<path fill-rule="evenodd" clip-rule="evenodd" d="M34.9693 6.29869C35.1398 6.12821 35.1398 5.8518 34.9693 5.68131C34.7988 5.51083 34.5224 5.51083 34.3519 5.68131L32.5 7.53321L30.6481 5.68131C30.4776 5.51083 30.2012 5.51083 30.0307 5.68131C29.8602 5.8518 29.8602 6.12821 30.0307 6.29869L31.8826 8.15059L30.0303 10.003C29.8598 10.1734 29.8598 10.4498 30.0303 10.6203C30.2007 10.7908 30.4772 10.7908 30.6476 10.6203L32.5 8.76797L34.3524 10.6203C34.5228 10.7908 34.7993 10.7908 34.9697 10.6203C35.1402 10.4498 35.1402 10.1734 34.9697 10.003L33.1174 8.15059L34.9693 6.29869Z" fill="white"/>
</svg>
