<svg width="16" height="18" viewBox="0 0 16 18" fill="none" xmlns="http://www.w3.org/2000/svg">
<path fill-rule="evenodd" clip-rule="evenodd" d="M1.29576 2.38419C0.5 3.47946 0.5 5.04185 0.5 8.16663V9.83329C0.5 12.9581 0.5 14.5205 1.29576 15.6157C1.55276 15.9695 1.86383 16.2805 2.21756 16.5375C3.31283 17.3333 4.87522 17.3333 8 17.3333C11.1248 17.3333 12.6872 17.3333 13.7824 16.5375C14.1362 16.2805 14.4472 15.9695 14.7042 15.6157C15.5 14.5205 15.5 12.9581 15.5 9.83329V8.16663C15.5 5.04185 15.5 3.47946 14.7042 2.38419C14.4472 2.03046 14.1362 1.71939 13.7824 1.46239C12.6872 0.666626 11.1248 0.666626 8 0.666626C4.87522 0.666626 3.31283 0.666626 2.21756 1.46239C1.86383 1.71939 1.55276 2.03046 1.29576 2.38419ZM4.66667 5.04163C4.32149 5.04163 4.04167 5.32145 4.04167 5.66663C4.04167 6.0118 4.32149 6.29163 4.66667 6.29163H11.3333C11.6785 6.29163 11.9583 6.0118 11.9583 5.66663C11.9583 5.32145 11.6785 5.04163 11.3333 5.04163H4.66667ZM4.66667 8.37496C4.32149 8.37496 4.04167 8.65478 4.04167 8.99996C4.04167 9.34514 4.32149 9.62496 4.66667 9.62496H11.3333C11.6785 9.62496 11.9583 9.34514 11.9583 8.99996C11.9583 8.65478 11.6785 8.37496 11.3333 8.37496H4.66667ZM4.66667 11.7083C4.32149 11.7083 4.04167 11.9881 4.04167 12.3333C4.04167 12.6785 4.32149 12.9583 4.66667 12.9583H11.3333C11.6785 12.9583 11.9583 12.6785 11.9583 12.3333C11.9583 11.9881 11.6785 11.7083 11.3333 11.7083H4.66667Z" fill="#808080"/>
</svg>
