<svg width="46" height="45" viewBox="0 0 46 45" fill="none" xmlns="http://www.w3.org/2000/svg">
<path d="M31.3291 6.55118C28.7075 -1.51706 17.2931 -1.51706 14.6716 6.55118C13.9008 8.92335 11.6903 10.5294 9.19602 10.5294C0.712563 10.5294 -2.81469 21.3852 4.04857 26.3716C6.06645 27.8377 6.91082 30.4364 6.14005 32.8085C3.51852 40.8768 12.753 47.586 19.6162 42.5996C21.6341 41.1335 24.3665 41.1335 26.3844 42.5996C33.2477 47.586 42.4821 40.8768 39.8606 32.8085C39.0898 30.4364 39.9342 27.8377 41.9521 26.3716C48.8153 21.3852 45.2881 10.5294 36.8046 10.5294C34.3104 10.5294 32.0998 8.92334 31.3291 6.55118Z" fill="#1E1E1E"/>
</svg>
