<svg width="160" height="160" viewBox="0 0 160 160" fill="none" xmlns="http://www.w3.org/2000/svg">
<path d="M157.354 134.031C155.861 136.631 153.707 138.79 151.11 140.288C148.513 141.787 145.565 142.571 142.567 142.562H102.754V153.937C102.758 155.06 102.429 156.159 101.809 157.095C101.189 158.031 100.306 158.763 99.2706 159.198C98.5691 159.476 97.8215 159.621 97.0667 159.624C95.5564 159.618 94.1061 159.033 93.0144 157.989L75.9519 140.856C75.4309 140.332 75.0184 139.711 74.7378 139.028C74.4572 138.345 74.3141 137.613 74.3167 136.874C74.3082 135.361 74.8956 133.906 75.9519 132.822L93.0144 115.76C93.8367 114.988 94.8607 114.465 95.9678 114.251C97.075 114.037 98.2201 114.141 99.2706 114.551C100.306 114.986 101.189 115.718 101.809 116.654C102.429 117.59 102.758 118.689 102.754 119.812V131.187H142.567C143.563 131.191 144.543 130.929 145.405 130.43C146.267 129.93 146.98 129.21 147.472 128.343C147.986 127.484 148.257 126.501 148.257 125.499C148.257 124.498 147.986 123.515 147.472 122.656L130.41 93.2229C129.655 91.9125 129.453 90.3561 129.846 88.8961C130.239 87.4362 131.197 86.1923 132.507 85.4381C133.817 84.6839 135.374 84.4812 136.834 84.8745C138.294 85.2678 139.537 86.225 140.292 87.5354L157.283 116.968C158.813 119.548 159.626 122.49 159.638 125.49C159.651 128.489 158.862 131.438 157.354 134.031ZM51.5667 131.187H17.4417C16.4453 131.191 15.4658 130.929 14.6038 130.43C13.7417 129.93 13.0281 129.21 12.5362 128.343C12.0227 127.484 11.7515 126.501 11.7515 125.499C11.7515 124.498 12.0227 123.515 12.5362 122.656L32.4425 88.3174L42.3245 94.0049C43.1872 94.5111 44.1681 94.7809 45.1683 94.787C46.4089 94.7772 47.6105 94.3516 48.5808 93.5784C49.4763 92.8983 50.1501 91.9679 50.5171 90.905C50.884 89.8421 50.9277 88.6942 50.6425 87.6065L44.3862 64.2877C43.984 62.8527 43.0411 61.6295 41.7558 60.8752C41.1108 60.4874 40.3928 60.2368 39.6467 60.1389C38.9005 60.0411 38.1422 60.0981 37.419 60.3065L14.1003 66.4916C13.0201 66.7909 12.0524 67.4027 11.3188 68.2502C10.5852 69.0976 10.1183 70.143 9.97685 71.2549C9.81403 72.3718 9.99148 73.5117 10.4861 74.5263C10.9806 75.5408 11.7694 76.3828 12.7495 76.9424L22.5604 82.6299L2.72529 116.968C1.20721 119.554 0.400438 122.495 0.386892 125.494C0.373347 128.492 1.15351 131.441 2.64817 134.04C4.14282 136.64 6.29873 138.797 8.89697 140.294C11.4952 141.791 14.4432 142.573 17.4417 142.562H51.5667C53.0751 142.562 54.5218 141.963 55.5884 140.896C56.655 139.83 57.2542 138.383 57.2542 136.874C57.2542 135.366 56.655 133.919 55.5884 132.853C54.5218 131.786 53.0751 131.187 51.5667 131.187ZM80.0042 11.7494C81.0021 11.7382 81.9845 11.9964 82.8479 12.4969C83.7113 12.9974 84.4235 13.7217 84.9097 14.5932L104.816 48.9315L95.005 54.619C94.0126 55.1621 93.2074 55.9922 92.6947 57.0006C92.1821 58.0091 91.9859 59.1488 92.1319 60.2706C92.2779 61.3924 92.7592 62.444 93.5129 63.2876C94.2666 64.1313 95.2574 64.7276 96.3558 64.9987L119.675 71.2549L121.096 71.4682C122.352 71.4689 123.573 71.0595 124.574 70.3023C125.575 69.5451 126.301 68.4816 126.642 67.2737L132.898 43.9549C133.189 42.8566 133.148 41.6968 132.781 40.6215C132.414 39.5462 131.738 38.6035 130.836 37.9119C129.936 37.2316 128.853 36.8346 127.727 36.7713C126.6 36.708 125.48 36.9813 124.509 37.5565L114.627 43.244L94.7917 8.9057C93.2956 6.30673 91.141 4.14796 88.5449 2.64689C85.9488 1.14582 83.003 0.355469 80.0042 0.355469C77.0054 0.355469 74.0595 1.14582 71.4635 2.64689C68.8674 4.14796 66.7128 6.30673 65.2167 8.9057L48.2253 38.3385C47.7802 38.9843 47.4734 39.7151 47.3243 40.4851C47.1752 41.2551 47.187 42.0476 47.3589 42.8129C47.5308 43.5781 47.8591 44.2995 48.3232 44.9318C48.7873 45.5641 49.3771 46.0935 50.0556 46.4868C50.7342 46.8802 51.4867 47.129 52.266 47.2175C53.0453 47.306 53.8345 47.2325 54.584 47.0013C55.3335 46.7702 56.0271 46.3866 56.6212 45.8746C57.2153 45.3626 57.697 44.7332 58.0362 44.026L75.0987 14.5932C75.5848 13.7217 76.2971 12.9974 77.1605 12.4969C78.0239 11.9964 79.0063 11.7382 80.0042 11.7494Z" fill="#333333"/>
</svg>
