<svg width="18" height="18" viewBox="0 0 18 18" fill="none" xmlns="http://www.w3.org/2000/svg">
<path fill-rule="evenodd" clip-rule="evenodd" d="M12.9395 0.0419922C12.4028 0.0419922 11.9594 0.266575 11.5397 0.58677C11.1421 0.890127 10.7006 1.33162 10.1712 1.86107L5.60378 6.42844C5.25304 6.7786 4.97571 7.05547 4.80563 7.40935C4.63555 7.76322 4.5926 8.15274 4.53827 8.64536L4.52353 8.77849C4.42191 9.6928 4.33815 10.4465 4.35732 11.0401C4.37737 11.661 4.51154 12.2297 4.95604 12.6742C5.40053 13.1187 5.96924 13.2528 6.59011 13.2729C7.18376 13.2921 7.93739 13.2083 8.85169 13.1067L8.98488 13.0919C9.47748 13.0376 9.867 12.9947 10.2209 12.8246C10.5747 12.6545 10.8516 12.3772 11.2018 12.0265L15.7691 7.45901C16.2986 6.92959 16.7401 6.48812 17.0434 6.09052C17.3636 5.67086 17.5882 5.22746 17.5882 4.69068C17.5882 4.15391 17.3636 3.71051 17.0434 3.29084C16.7401 2.89324 16.2986 2.45177 15.7691 1.92236L15.7079 1.8611C15.1785 1.33164 14.737 0.890132 14.3394 0.58677C13.9197 0.266575 13.4763 0.0419922 12.9395 0.0419922ZM15.2955 6.16275L11.4675 2.33473C11.8055 2.00168 12.067 1.75676 12.2979 1.58055C12.6064 1.34519 12.786 1.29199 12.9395 1.29199C13.0931 1.29199 13.2727 1.34519 13.5811 1.58055C13.904 1.82691 14.2866 2.20755 14.8546 2.7756C15.4227 3.34365 15.8033 3.72617 16.0497 4.04907C16.285 4.35754 16.3382 4.5371 16.3382 4.69068C16.3382 4.84426 16.285 5.02382 16.0497 5.3323C15.8735 5.56325 15.6285 5.82471 15.2955 6.16275ZM10.5825 3.21754L14.4127 7.0477L10.3781 11.0823C9.93857 11.5218 9.81711 11.6318 9.67938 11.698C9.54165 11.7641 9.37992 11.7903 8.76212 11.8589C7.78713 11.9673 7.12353 12.0395 6.63045 12.0235C6.15414 12.0082 5.96185 11.9122 5.83992 11.7903C5.718 11.6684 5.62205 11.4761 5.60667 10.9998C5.59075 10.5067 5.66293 9.84308 5.77126 8.8681C5.83991 8.2503 5.86606 8.08857 5.93226 7.95083C5.99846 7.8131 6.10841 7.69164 6.54795 7.2521L10.5825 3.21754Z" fill="white"/>
<path d="M6.50733 2.27404C6.85248 2.26991 7.12893 1.98675 7.12479 1.6416C7.12066 1.29645 6.8375 1.02 6.49235 1.02413C4.47025 1.04837 3.08229 1.15902 2.0167 1.93321C1.60991 2.22876 1.25218 2.58649 0.956631 2.99328C0.468441 3.66522 0.249842 4.4522 0.144611 5.42348C0.0414918 6.37526 0.0414972 7.57493 0.041504 9.10538V9.18079C0.0414972 10.7112 0.0414918 11.9109 0.144611 12.8627C0.249842 13.834 0.468441 14.621 0.956631 15.2929C1.25218 15.6997 1.60991 16.0574 2.0167 16.353C2.68864 16.8411 3.47562 17.0597 4.4469 17.165C5.39866 17.2681 6.59831 17.2681 8.12871 17.2681H8.20423C9.73464 17.2681 10.9343 17.2681 11.8861 17.165C12.8574 17.0597 13.6444 16.8411 14.3163 16.353C14.7231 16.0574 15.0808 15.6997 15.3764 15.2929C16.1506 14.2273 16.2612 12.8393 16.2855 10.8172C16.2896 10.4721 16.0131 10.1889 15.668 10.1848C15.3228 10.1807 15.0397 10.4571 15.0355 10.8023C15.0106 12.8863 14.8703 13.8629 14.3651 14.5582C14.1467 14.8588 13.8822 15.1232 13.5816 15.3417C13.1582 15.6493 12.6164 15.8285 11.7515 15.9222C10.8748 16.0172 9.74281 16.0181 8.1665 16.0181C6.59019 16.0181 5.45817 16.0172 4.58154 15.9222C3.71662 15.8285 3.17477 15.6493 2.75143 15.3417C2.45076 15.1232 2.18635 14.8588 1.9679 14.5582C1.66033 14.1348 1.48105 13.593 1.38734 12.728C1.29236 11.8514 1.2915 10.7194 1.2915 9.14309C1.2915 7.56678 1.29236 6.43475 1.38734 5.55812C1.48105 4.6932 1.66033 4.15135 1.9679 3.72801C2.18635 3.42734 2.45076 3.16293 2.75143 2.94448C3.44673 2.43932 4.42333 2.29903 6.50733 2.27404Z" fill="white"/>
</svg>
