<svg width="16" height="16" viewBox="0 0 16 16" fill="none" xmlns="http://www.w3.org/2000/svg">
<path fill-rule="evenodd" clip-rule="evenodd" d="M7.33301 0.166687C3.74316 0.166687 0.833008 3.07684 0.833008 6.66669C0.833008 10.2565 3.74316 13.1667 7.33301 13.1667C10.9229 13.1667 13.833 10.2565 13.833 6.66669C13.833 3.07684 10.9229 0.166687 7.33301 0.166687ZM1.83301 6.66669C1.83301 3.62912 4.29544 1.16669 7.33301 1.16669C10.3706 1.16669 12.833 3.62912 12.833 6.66669C12.833 9.70425 10.3706 12.1667 7.33301 12.1667C4.29544 12.1667 1.83301 9.70425 1.83301 6.66669Z" fill="#999999"/>
<path d="M13.0199 11.6465C12.8247 11.4513 12.5081 11.4513 12.3128 11.6465C12.1176 11.8418 12.1176 12.1584 12.3128 12.3536L14.9794 15.0203C15.1747 15.2155 15.4913 15.2155 15.6865 15.0203C15.8818 14.825 15.8818 14.5084 15.6865 14.3132L13.0199 11.6465Z" fill="#999999"/>
</svg>
