<svg width="32" height="26" viewBox="0 0 32 26" fill="none" xmlns="http://www.w3.org/2000/svg">
<path d="M28.2751 6.47263C28.2943 6.75471 28.2943 7.0368 28.2943 7.32148C28.2943 15.9958 21.7934 26 9.90622 26V25.9948C6.3947 26 2.95612 24.9783 0 23.0518C0.510603 23.1142 1.02377 23.1454 1.53821 23.1467C4.44826 23.1493 7.27514 22.1574 9.56453 20.3311C6.79909 20.2778 4.37404 18.4462 3.52687 15.7722C4.49561 15.962 5.49378 15.923 6.44461 15.6592C3.42962 15.0404 1.26051 12.3496 1.26051 9.22456C1.26051 9.19596 1.26051 9.16866 1.26051 9.14136C2.15887 9.64963 3.16472 9.93172 4.1936 9.96291C1.35393 8.03513 0.478611 4.19778 2.19342 1.19757C5.47459 5.29881 10.3157 7.79205 15.5126 8.05593C14.9918 5.77588 15.7033 3.38663 17.3823 1.78383C19.9852 -0.701615 24.079 -0.574223 26.5258 2.06851C27.9731 1.77863 29.3603 1.23916 30.6298 0.474811C30.1474 1.99442 29.1377 3.28523 27.7888 4.10548C29.0698 3.95209 30.3214 3.60371 31.5 3.07205C30.6324 4.39276 29.5395 5.54319 28.2751 6.47263Z" fill="#1D9BF0"/>
</svg>
