<svg width="20" height="20" viewBox="0 0 20 20" fill="none" xmlns="http://www.w3.org/2000/svg">
<path d="M8.20552 1.11252C8.60964 0.706845 9.05817 0.370553 9.63134 0.279232C9.75345 0.259777 9.87663 0.25 10 0.25C10.1234 0.25 10.2466 0.259776 10.3687 0.279231C10.9419 0.370553 11.3904 0.706846 11.7945 1.11252C12.1883 1.50784 12.6283 2.06275 13.1614 2.73524L14.5877 4.53403C14.845 4.8586 14.7905 5.33034 14.466 5.58768C14.1414 5.84503 13.6697 5.79054 13.4123 5.46597L12.0145 3.703C11.4563 2.99897 11.0727 2.51697 10.75 2.18952V15C10.75 15.4142 10.4142 15.75 10 15.75C9.5858 15.75 9.25001 15.4142 9.25001 15V2.18952C8.92735 2.51697 8.54376 2.99897 7.98554 3.703L6.58769 5.46597C6.33035 5.79054 5.85861 5.84503 5.53404 5.58768C5.20947 5.33034 5.15498 4.8586 5.41233 4.53403L6.83857 2.73525C7.37174 2.06278 7.81173 1.50783 8.20552 1.11252Z" fill="white"/>
<path d="M18.6 8.54956C18.3513 8.21837 17.8811 8.15156 17.5499 8.40032C17.2188 8.64909 17.1519 9.11924 17.4007 9.45043C17.9342 10.1607 18.25 11.0424 18.25 12V13C18.25 13.9577 18.2477 14.3492 18.1977 14.6648C17.9097 16.4834 16.4834 17.9096 14.6649 18.1977C14.3492 18.2477 13.9577 18.25 13 18.25H7.00001C6.04234 18.25 5.65083 18.2477 5.33516 18.1977C3.51662 17.9096 2.09036 16.4834 1.80233 14.6648C1.75234 14.3492 1.75001 13.9577 1.75001 13V12C1.75001 11.0424 2.06583 10.1607 2.59932 9.45043C2.84808 9.11924 2.78127 8.64909 2.45008 8.40032C2.11888 8.15156 1.64874 8.21837 1.39997 8.54956C0.678072 9.51064 0.250008 10.7064 0.250008 12L0.250004 13.0808C0.249937 13.9328 0.249895 14.4518 0.3208 14.8995C0.710487 17.3599 2.64013 19.2895 5.10051 19.6792C5.54819 19.7501 6.06718 19.7501 6.91921 19.75H13.0808C13.9328 19.7501 14.4518 19.7501 14.8995 19.6792C17.3599 19.2895 19.2895 17.3599 19.6792 14.8995C19.7501 14.4518 19.7501 13.9328 19.75 13.0808L19.75 12C19.75 10.7064 19.3219 9.51064 18.6 8.54956Z" fill="white"/>
</svg>
