<svg width="25" height="24" viewBox="0 0 25 24" fill="none" xmlns="http://www.w3.org/2000/svg">
<path d="M15.6552 12.1288C15.6001 11.9591 15.4534 11.8355 15.2768 11.8098L13.4793 11.5486L12.6739 9.88922C12.5955 9.72768 12.4317 9.62512 12.2522 9.62512C12.0726 9.62512 11.9089 9.72768 11.8304 9.88922L11.0254 11.548L9.19726 11.8097C9.01957 11.8351 8.87201 11.9597 8.81726 12.1307C8.76254 12.3016 8.8102 12.4888 8.94004 12.6127L10.2667 13.8791L9.93226 15.6965C9.89988 15.8724 9.97045 16.0514 10.1141 16.1579C10.2579 16.2645 10.4496 16.2799 10.6085 16.1978L12.2504 15.3491L13.8617 16.1963C14.0194 16.2792 14.2106 16.2655 14.3549 16.1609C14.4992 16.0564 14.5717 15.879 14.5421 15.7033L14.2339 13.8791L15.5366 12.6093C15.6644 12.4848 15.7104 12.2985 15.6552 12.1288ZM13.4036 13.3793C13.2934 13.4867 13.243 13.6413 13.2686 13.7931L13.46 14.9259L12.4704 14.4056C12.3348 14.3344 12.173 14.3338 12.037 14.4041L11.0274 14.926L11.2346 13.7998C11.2632 13.6444 11.2116 13.4851 11.0973 13.3759L10.2854 12.601L11.4048 12.4407C11.5589 12.4187 11.6921 12.3215 11.7601 12.1814L12.2522 11.1674L12.7443 12.1814C12.8122 12.3212 12.9449 12.4183 13.0986 12.4406L14.2021 12.601L13.4036 13.3793Z" fill="#8051FF"/>
<path d="M18.8936 4.9375H18.4248V4.46875C18.4248 4.20987 18.2149 4 17.9561 4C17.6972 4 17.4873 4.20987 17.4873 4.46875V4.9375H15.5811V4.46875C15.5811 4.20987 15.3712 4 15.1123 4C14.8534 4 14.6436 4.20987 14.6436 4.46875V4.9375H12.7686V4.46875C12.7686 4.20987 12.5587 4 12.2998 4C12.0409 4 11.8311 4.20987 11.8311 4.46875V4.9375H9.9248V4.46875C9.9248 4.20987 9.71493 4 9.45605 4C9.19718 4 8.9873 4.20987 8.9873 4.46875V4.9375H7.1123V4.46875C7.1123 4.20987 6.90243 4 6.64355 4C6.38468 4 6.1748 4.20987 6.1748 4.46875V4.9375H5.70605C4.93065 4.9375 4.2998 5.56834 4.2998 6.34375V18.5938C4.2998 19.3692 4.93065 20 5.70605 20H18.8936C19.669 20 20.2998 19.3692 20.2998 18.5938V6.34375C20.2998 5.56834 19.669 4.9375 18.8936 4.9375ZM19.3623 18.5938C19.3623 18.8522 19.152 19.0625 18.8936 19.0625H5.70605C5.44759 19.0625 5.2373 18.8522 5.2373 18.5938V18.125H19.3623V18.5938ZM19.3623 17.1875H5.2373V8.6875H19.3623V17.1875ZM19.3623 7.75H5.2373V6.34375C5.2373 6.08528 5.44759 5.875 5.70605 5.875H6.1748V6.34375C6.1748 6.60262 6.38468 6.8125 6.64355 6.8125C6.90243 6.8125 7.1123 6.60262 7.1123 6.34375V5.875H8.9873V6.34375C8.9873 6.60262 9.19718 6.8125 9.45605 6.8125C9.71493 6.8125 9.9248 6.60262 9.9248 6.34375V5.875H11.8311V6.34375C11.8311 6.60262 12.0409 6.8125 12.2998 6.8125C12.5587 6.8125 12.7686 6.60262 12.7686 6.34375V5.875H14.6436V6.34375C14.6436 6.60262 14.8534 6.8125 15.1123 6.8125C15.3712 6.8125 15.5811 6.60262 15.5811 6.34375V5.875H17.4873V6.34375C17.4873 6.60262 17.6972 6.8125 17.9561 6.8125C18.2149 6.8125 18.4248 6.60262 18.4248 6.34375V5.875H18.8936C19.152 5.875 19.3623 6.08528 19.3623 6.34375V7.75Z" fill="#8051FF"/>
</svg>
