<svg width="25" height="24" viewBox="0 0 25 24" fill="none" xmlns="http://www.w3.org/2000/svg">
<path d="M12.9262 18.7646C13.0217 19.0963 12.8301 19.4425 12.4985 19.5379C12.4985 19.5379 11.1263 19.9316 11.1055 19.9353C10.3494 20.0717 9.56935 19.9912 8.85492 19.7005L6.84434 18.8828C5.54299 18.3536 4.70215 17.104 4.70215 15.6992V6.5953C4.70215 5.73071 5.13041 4.9264 5.84771 4.44374C6.56511 3.96111 7.47147 3.86741 8.27228 4.1931C8.27375 4.19369 10.0753 4.94242 10.0753 4.94242C10.0753 4.94242 14.2903 4.06546 14.2958 4.06447C15.0542 3.92777 15.8325 4.00898 16.5463 4.2993L18.5569 5.11692C19.8582 5.64613 20.6991 6.8958 20.6991 8.30057V11.5013C20.6661 12.3304 19.482 12.3298 19.4493 11.5013V8.3006C19.4493 7.40664 18.9142 6.61142 18.0861 6.27464L16.0755 5.45701C15.5838 5.25705 15.0478 5.20037 14.5253 5.29304L10.1409 6.20531C10.0179 6.2309 9.88995 6.21884 9.77381 6.17057L7.79944 5.34994C6.93738 4.98213 5.93438 5.65829 5.95191 6.5953V15.6992C5.95191 16.5931 6.487 17.3884 7.31512 17.7251L9.32571 18.5428C9.81065 18.74 10.3384 18.7978 10.854 18.7106L12.153 18.3369C12.4847 18.2415 12.8308 18.433 12.9262 18.7646ZM20.6991 15.2194C20.6991 15.2236 20.6992 15.2152 20.6991 15.2194V15.2194ZM12.7944 15.2194C12.7943 15.2152 12.7944 15.2236 12.7944 15.2194V15.2194ZM20.6991 15.2194C20.6672 16.7947 19.7671 18.3056 18.0961 19.5567C17.704 19.8504 17.2339 19.9972 16.7639 19.9973C16.2939 19.9973 15.8239 19.8505 15.4317 19.5567C13.7607 18.3056 12.8261 16.7947 12.7943 15.2194C12.7969 13.1706 15.3802 12.1647 16.7639 13.652C18.1524 12.1676 20.7028 13.1609 20.6991 15.2194ZM19.4493 15.2177C19.3866 13.85 17.4459 13.854 17.3888 15.2186C17.3888 15.5637 17.1091 15.8435 16.764 15.8435C16.4188 15.8435 16.1391 15.5637 16.1391 15.2186C16.0819 13.8534 14.1406 13.8508 14.0786 15.2177C14.1119 16.7008 15.2397 17.8517 16.1808 18.5563C16.5242 18.8135 17.0037 18.8135 17.3471 18.5563C18.2882 17.8517 19.416 16.7008 19.4493 15.2177ZM15.2626 11.7513C14.9175 11.7513 14.6378 11.4715 14.6378 11.1264V7.12714C14.6708 6.29804 15.8548 6.29867 15.8875 7.12714V11.1264C15.8875 11.4715 15.6078 11.7513 15.2626 11.7513ZM10.7635 16.8726V8.03056C10.7305 7.20146 9.54645 7.20209 9.51374 8.03056V16.8726C9.51374 17.2178 9.7935 17.4975 10.1386 17.4975C10.4837 17.4975 10.7635 17.2178 10.7635 16.8726Z" fill="#8051FF"/>
</svg>
