<svg width="25" height="24" viewBox="0 0 25 24" fill="none" xmlns="http://www.w3.org/2000/svg">
<path d="M11.9797 4C8.09456 4 4.93359 7.16097 4.93359 11.0461C4.93359 14.9314 8.09456 18.0921 11.9797 18.0921C15.865 18.0921 19.0257 14.9314 19.0257 11.0461C19.0257 7.16097 15.865 4 11.9797 4ZM11.9797 16.7913C8.81175 16.7913 6.23441 14.214 6.23441 11.0461C6.23441 7.87819 8.81175 5.30081 11.9797 5.30081C15.1476 5.30081 17.7249 7.87816 17.7249 11.0461C17.7249 14.214 15.1476 16.7913 11.9797 16.7913Z" fill="#8051FF"/>
<path d="M20.7426 18.8897L17.0136 15.1607C16.7595 14.9066 16.348 14.9066 16.0939 15.1607C15.8398 15.4145 15.8398 15.8265 16.0939 16.0804L19.8229 19.8094C19.9499 19.9364 20.1163 19.9999 20.2828 19.9999C20.449 19.9999 20.6155 19.9364 20.7426 19.8094C20.9967 19.5555 20.9967 19.1435 20.7426 18.8897Z" fill="#8051FF"/>
</svg>
