<svg width="24" height="24" viewBox="0 0 24 24" fill="none" xmlns="http://www.w3.org/2000/svg">
<path d="M19.6 10.928C19.5995 10.9276 19.5991 10.9271 19.5988 10.9268L13.072 4.40027C12.7938 4.12195 12.424 3.96875 12.0305 3.96875C11.6371 3.96875 11.2672 4.12195 10.9889 4.40027L4.46557 10.9235C4.46337 10.9257 4.46105 10.928 4.45898 10.9302C3.88768 11.5048 3.88866 12.437 4.46178 13.0101C4.72362 13.2721 5.06933 13.4237 5.43908 13.4397C5.45422 13.4412 5.46935 13.4419 5.48461 13.4419H5.74462V18.2449C5.74462 19.1955 6.51806 19.9688 7.46863 19.9688H10.0221C10.281 19.9688 10.4908 19.7588 10.4908 19.5V15.7344C10.4908 15.3007 10.8438 14.9479 11.2775 14.9479H12.7836C13.2173 14.9479 13.5701 15.3007 13.5701 15.7344V19.5C13.5701 19.7588 13.7799 19.9688 14.0388 19.9688H16.5923C17.543 19.9688 18.3163 19.1955 18.3163 18.2449V13.4419H18.5575C18.9508 13.4419 19.3207 13.2887 19.5991 13.0103C20.1729 12.4363 20.1731 11.5023 19.6 10.928ZM18.9362 12.3474C18.835 12.4486 18.7005 12.5044 18.5575 12.5044H17.8476C17.5886 12.5044 17.3788 12.7143 17.3788 12.9732V18.2449C17.3788 18.6785 17.026 19.0313 16.5923 19.0313H14.5076V15.7344C14.5076 14.7838 13.7343 14.0104 12.7836 14.0104H11.2775C10.3268 14.0104 9.55335 14.7838 9.55335 15.7344V19.0313H7.46863C7.03503 19.0313 6.68212 18.6785 6.68212 18.2449V12.9732C6.68212 12.7143 6.47229 12.5044 6.21337 12.5044H5.51562C5.50829 12.5039 5.50109 12.5036 5.49365 12.5034C5.354 12.501 5.22301 12.4456 5.12487 12.3473C4.91613 12.1386 4.91613 11.7988 5.12487 11.59C5.12499 11.59 5.12499 11.5899 5.12511 11.5897L5.12548 11.5894L11.652 5.06311C11.7531 4.96192 11.8875 4.90625 12.0305 4.90625C12.1735 4.90625 12.3079 4.96192 12.4091 5.06311L18.9341 11.588C18.9351 11.589 18.9362 11.59 18.9372 11.591C19.1448 11.8001 19.1444 12.1391 18.9362 12.3474Z" fill="#8051FF"/>
</svg>
