<svg width="24" height="24" viewBox="0 0 24 24" fill="none" xmlns="http://www.w3.org/2000/svg">
<g clip-path="url(#clip0_5272_12207)">
<path d="M18.5299 12.7683C18.5026 9.72698 21.0138 8.2669 21.1274 8.19572C19.7143 6.12829 17.5151 5.84506 16.7305 5.81174C14.86 5.62242 13.0788 6.91285 12.1307 6.91285C11.1825 6.91285 9.71641 5.83901 8.16546 5.8693C6.12378 5.89959 4.24416 7.05523 3.19303 8.88183C1.07411 12.5578 2.65232 18.0058 4.7152 20.9895C5.72544 22.4481 6.92803 24.0914 8.50927 24.0308C10.033 23.9703 10.6085 23.0464 12.4472 23.0464C14.2859 23.0464 14.8039 24.0308 16.414 24.0021C18.0512 23.9703 19.0903 22.5117 20.0929 21.0486C21.2501 19.3553 21.7287 17.7165 21.7559 17.6302C21.7196 17.615 18.5632 16.4048 18.5299 12.7683Z" fill="black"/>
<path d="M15.5357 3.83533C16.3814 2.81973 16.9523 1.40756 16.7951 0C15.5768 0.0484863 14.1023 0.80523 13.2276 1.82083C12.4445 2.71841 11.7576 4.15625 11.9437 5.53515C13.3024 5.63959 14.6899 4.84943 15.5357 3.83533Z" fill="black"/>
</g>
<defs>
<clipPath id="clip0_5272_12207">
<rect width="24" height="24" fill="white"/>
</clipPath>
</defs>
</svg>
