<svg width="16" height="14" viewBox="0 0 16 14" fill="none" xmlns="http://www.w3.org/2000/svg">
<path d="M1.30208 3.47495C1.14542 4.11289 1.031 4.93672 0.871824 6.0828C0.508346 8.69984 0.326607 10.0084 0.726214 11.0246C1.07703 11.9168 1.72477 12.6608 2.56022 13.131C3.51186 13.6666 4.83294 13.6666 7.47508 13.6666H8.8286C11.4707 13.6666 12.7918 13.6666 13.7435 13.131C14.5789 12.6608 15.2267 11.9168 15.5775 11.0246C15.9771 10.0084 15.7954 8.69984 15.4319 6.0828C15.259 4.83811 15.1389 3.9735 14.9602 3.31431L14.3515 3.92301C12.9913 5.28324 11.9253 6.34923 10.9818 7.06913C10.016 7.806 9.10536 8.23891 8.05082 8.23891C6.99627 8.23891 6.08566 7.806 5.11988 7.06913C4.17634 6.34923 3.11036 5.28324 1.75014 3.92301L1.30208 3.47495Z" fill="#333333"/>
<path d="M1.8124 2.2175L2.6002 3.0053C4.00158 4.40669 5.0091 5.41233 5.87811 6.07536C6.7327 6.72739 7.37947 6.98891 8.05082 6.98891C8.72216 6.98891 9.36894 6.72739 10.2235 6.07536C11.0925 5.41233 12.1 4.40669 13.5014 3.0053L14.4095 2.09722C13.9862 1.49745 13.4111 1.01916 12.7417 0.712279C11.9149 0.333252 10.8861 0.333252 8.82859 0.333252H7.47511C5.41756 0.333252 4.38879 0.333252 3.56198 0.712279C2.84839 1.03941 2.24204 1.56131 1.8124 2.2175Z" fill="#333333"/>
</svg>
