<svg width="25" height="24" viewBox="0 0 25 24" fill="none" xmlns="http://www.w3.org/2000/svg">
<path d="M15.655 12.1287C15.5999 11.959 15.4532 11.8353 15.2766 11.8097L13.479 11.5485L12.6737 9.88909C12.5953 9.72756 12.4315 9.625 12.252 9.625C12.0724 9.625 11.9086 9.72756 11.8302 9.88909L11.0251 11.5479L9.19704 11.8095C9.01936 11.835 8.87179 11.9596 8.81704 12.1306C8.76233 12.3015 8.80998 12.4887 8.93983 12.6126L10.2665 13.879L9.93204 15.6964C9.89967 15.8723 9.97023 16.0513 10.1139 16.1578C10.2576 16.2643 10.4494 16.2797 10.6083 16.1976L12.2501 15.349L13.8615 16.1961C14.0192 16.2791 14.2104 16.2654 14.3547 16.1608C14.499 16.0562 14.5715 15.8789 14.5419 15.7031L14.2337 13.879L15.5364 12.6092C15.6642 12.4847 15.7102 12.2984 15.655 12.1287ZM13.4034 13.3792C13.2932 13.4866 13.2428 13.6412 13.2684 13.7929L13.4598 14.9258L12.4701 14.4055C12.3346 14.3342 12.1728 14.3337 12.0368 14.404L11.0271 14.9259L11.2344 13.7997C11.263 13.6443 11.2114 13.4849 11.097 13.3758L10.2852 12.6009L11.4045 12.4406C11.5587 12.4186 11.6919 12.3214 11.7599 12.1813L12.252 11.1673L12.7441 12.1813C12.812 12.3211 12.9446 12.4182 13.0984 12.4405L14.2019 12.6008L13.4034 13.3792Z" fill="#767D85"/>
<path d="M18.8937 4.9375H18.425V4.46875C18.425 4.20987 18.2151 4 17.9562 4C17.6974 4 17.4875 4.20987 17.4875 4.46875V4.9375H15.5812V4.46875C15.5812 4.20987 15.3714 4 15.1125 4C14.8536 4 14.6437 4.20987 14.6437 4.46875V4.9375H12.7687V4.46875C12.7687 4.20987 12.5589 4 12.3 4C12.0411 4 11.8312 4.20987 11.8312 4.46875V4.9375H9.92499V4.46875C9.92499 4.20987 9.71511 4 9.45624 4C9.19736 4 8.98749 4.20987 8.98749 4.46875V4.9375H7.11249V4.46875C7.11249 4.20987 6.90261 4 6.64374 4C6.38486 4 6.17499 4.20987 6.17499 4.46875V4.9375H5.70624C4.93083 4.9375 4.29999 5.56834 4.29999 6.34375V18.5938C4.29999 19.3692 4.93083 20 5.70624 20H18.8937C19.6691 20 20.3 19.3692 20.3 18.5938V6.34375C20.3 5.56834 19.6691 4.9375 18.8937 4.9375ZM19.3625 18.5938C19.3625 18.8522 19.1522 19.0625 18.8937 19.0625H5.70624C5.44777 19.0625 5.23749 18.8522 5.23749 18.5938V18.125H19.3625V18.5938ZM19.3625 17.1875H5.23749V8.6875H19.3625V17.1875ZM19.3625 7.75H5.23749V6.34375C5.23749 6.08528 5.44777 5.875 5.70624 5.875H6.17499V6.34375C6.17499 6.60262 6.38486 6.8125 6.64374 6.8125C6.90261 6.8125 7.11249 6.60262 7.11249 6.34375V5.875H8.98749V6.34375C8.98749 6.60262 9.19736 6.8125 9.45624 6.8125C9.71511 6.8125 9.92499 6.60262 9.92499 6.34375V5.875H11.8312V6.34375C11.8312 6.60262 12.0411 6.8125 12.3 6.8125C12.5589 6.8125 12.7687 6.60262 12.7687 6.34375V5.875H14.6437V6.34375C14.6437 6.60262 14.8536 6.8125 15.1125 6.8125C15.3714 6.8125 15.5812 6.60262 15.5812 6.34375V5.875H17.4875V6.34375C17.4875 6.60262 17.6974 6.8125 17.9562 6.8125C18.2151 6.8125 18.425 6.60262 18.425 6.34375V5.875H18.8937C19.1522 5.875 19.3625 6.08528 19.3625 6.34375V7.75Z" fill="#767D85"/>
</svg>
