<svg width="25" height="24" viewBox="0 0 25 24" fill="none" xmlns="http://www.w3.org/2000/svg">
<path d="M11.6461 4C7.76096 4 4.59999 7.16097 4.59999 11.0461C4.59999 14.9314 7.76096 18.0921 11.6461 18.0921C15.5314 18.0921 18.6921 14.9314 18.6921 11.0461C18.6921 7.16097 15.5314 4 11.6461 4ZM11.6461 16.7913C8.47815 16.7913 5.9008 14.214 5.9008 11.0461C5.9008 7.87819 8.47815 5.30081 11.6461 5.30081C14.814 5.30081 17.3913 7.87816 17.3913 11.0461C17.3913 14.214 14.814 16.7913 11.6461 16.7913Z" fill="#767D85"/>
<path d="M20.4095 18.8893L16.6804 15.1603C16.4263 14.9062 16.0148 14.9062 15.7607 15.1603C15.5067 15.4142 15.5067 15.8261 15.7607 16.08L19.4898 19.809C19.6168 19.936 19.7831 19.9996 19.9496 19.9996C20.1159 19.9996 20.2824 19.936 20.4095 19.809C20.6635 19.5551 20.6635 19.1432 20.4095 18.8893Z" fill="#767D85"/>
</svg>
