<svg width="25" height="24" viewBox="0 0 25 24" fill="none" xmlns="http://www.w3.org/2000/svg">
<path d="M12.4263 18.7648C12.5217 19.0964 12.3302 19.4426 11.9986 19.5381C11.9986 19.5381 10.6264 19.9317 10.6055 19.9354C9.8495 20.0719 9.06943 19.9914 8.355 19.7006L6.34441 18.8829C5.04307 18.3538 4.20222 17.1041 4.20222 15.6993V6.59542C4.20222 5.73083 4.63049 4.92652 5.34779 4.44386C6.06518 3.96123 6.97154 3.86753 7.77236 4.19322C7.77383 4.19381 9.57533 4.94255 9.57533 4.94255C9.57533 4.94255 13.7904 4.06559 13.7959 4.06459C14.5542 3.92789 15.3326 4.0091 16.0464 4.29942L18.057 5.11704C19.3583 5.64626 20.1992 6.89593 20.1992 8.30069V11.5014C20.1662 12.3305 18.9821 12.3299 18.9494 11.5014V8.30072C18.9494 7.40677 18.4143 6.61154 17.5862 6.27476L15.5756 5.45714C15.0839 5.25717 14.5479 5.2005 14.0254 5.29317L9.64101 6.20543C9.51797 6.23102 9.39002 6.21896 9.27389 6.17069L7.29951 5.35006C6.43746 4.98226 5.43446 5.65841 5.45199 6.59542V15.6993C5.45199 16.5932 5.98707 17.3885 6.8152 17.7252L8.82579 18.5429C9.31073 18.7401 9.8385 18.7979 10.354 18.7107L11.653 18.337C11.9848 18.2416 12.3309 18.4331 12.4263 18.7648V18.7648ZM20.1992 15.2195C20.1992 15.2237 20.1993 15.2153 20.1992 15.2195V15.2195ZM12.2944 15.2195C12.2943 15.2153 12.2944 15.2237 12.2944 15.2195V15.2195ZM20.1992 15.2195C20.1673 16.7948 19.2672 18.3057 17.5962 19.5569C17.2041 19.8505 16.7339 19.9973 16.264 19.9974C15.7939 19.9974 15.324 19.8506 14.9318 19.5569C13.2608 18.3057 12.3262 16.7948 12.2944 15.2195C12.297 13.1707 14.8803 12.1648 16.264 13.6521C17.6525 12.1677 20.2029 13.1611 20.1992 15.2195V15.2195ZM18.9494 15.2178C18.8867 13.8501 16.946 13.8541 16.8889 15.2187C16.8889 15.5638 16.6092 15.8436 16.264 15.8436C15.9189 15.8436 15.6392 15.5638 15.6392 15.2187C15.582 13.8535 13.6407 13.8509 13.5787 15.2178C13.612 16.7009 14.7398 17.8518 15.6809 18.5565C16.0243 18.8136 16.5038 18.8136 16.8472 18.5565C17.7882 17.8518 18.916 16.7009 18.9494 15.2178ZM14.7627 11.7514C14.4176 11.7514 14.1378 11.4716 14.1378 11.1265V7.12726C14.1708 6.29816 15.3549 6.29879 15.3876 7.12726V11.1265C15.3876 11.4716 15.1078 11.7514 14.7627 11.7514ZM10.2636 16.8728V8.03068C10.2306 7.20159 9.04653 7.20221 9.01381 8.03068V16.8728C9.01381 17.2179 9.29357 17.4976 9.63869 17.4976C9.98382 17.4976 10.2636 17.2179 10.2636 16.8728Z" fill="#767D85"/>
</svg>
