<svg width="137" height="24" viewBox="0 0 137 24" fill="none" xmlns="http://www.w3.org/2000/svg">
<path d="M23.5077 23.9182C22.6904 23.9182 22.0184 23.5459 21.4918 22.8013C20.9833 22.0386 20.729 21.0942 20.729 19.9682C20.729 18.6061 20.8198 17.3621 21.0014 16.2361C21.183 15.0919 21.4827 13.8842 21.9004 12.6129C22.082 12.0681 22.3363 11.6776 22.6632 11.4415C22.9901 11.2054 23.5077 11.0874 24.2159 11.0874C24.6155 11.0874 24.8879 11.151 25.0332 11.2781C25.1966 11.4052 25.2784 11.5959 25.2784 11.8502C25.2784 11.9954 25.1785 12.4858 24.9787 13.3212C24.7971 13.9932 24.6518 14.6016 24.5428 15.1464C24.1796 17.0533 23.998 18.3246 23.998 18.9603C23.998 19.3416 24.0434 19.6141 24.1342 19.7775C24.225 19.9228 24.3703 19.9954 24.5701 19.9954C24.8425 19.9954 25.1785 19.723 25.578 19.1782C25.9957 18.6334 26.4316 17.807 26.8856 16.6992C27.3578 15.5914 27.8119 14.2293 28.2477 12.6129C28.393 12.0681 28.6109 11.6776 28.9015 11.4415C29.2103 11.2054 29.6643 11.0874 30.2636 11.0874C30.6813 11.0874 30.9719 11.1419 31.1354 11.2508C31.2988 11.3416 31.3805 11.5233 31.3805 11.7957C31.3805 12.2497 31.1535 13.4937 30.6995 15.5278C30.191 17.8524 29.9367 19.2872 29.9367 19.832C29.9367 20.177 30.0094 20.4495 30.1546 20.6492C30.2999 20.8309 30.4906 20.9217 30.7267 20.9217C31.0899 20.9217 31.5167 20.7037 32.0071 20.2679C32.5156 19.8138 33.1876 19.0874 34.023 18.0885C34.2409 17.8343 34.4861 17.7071 34.7585 17.7071C34.9946 17.7071 35.1762 17.8161 35.3033 18.034C35.4486 18.252 35.5213 18.5516 35.5213 18.933C35.5213 19.6595 35.3487 20.2225 35.0037 20.622C34.2227 21.5845 33.3783 22.3745 32.4702 22.992C31.5803 23.6095 30.5633 23.9182 29.4191 23.9182C28.5474 23.9182 27.9027 23.5823 27.485 22.9103C27.0854 22.2383 26.8856 21.294 26.8856 20.0772C26.5769 21.3121 26.1138 22.2656 25.4963 22.9375C24.8788 23.5913 24.2159 23.9182 23.5077 23.9182Z" fill="#FAFBFF"/>
<path d="M35.2465 23.9182C34.5564 23.9182 34.066 23.555 33.7755 22.8286C33.503 22.1021 33.3668 20.9398 33.3668 19.3416C33.3668 16.9807 33.7028 14.7378 34.3748 12.6129C34.5382 12.0863 34.8016 11.7049 35.1648 11.4688C35.5462 11.2145 36.0728 11.0874 36.7448 11.0874C37.108 11.0874 37.3623 11.1328 37.5076 11.2236C37.6529 11.3144 37.7255 11.4869 37.7255 11.7412C37.7255 12.0318 37.5893 12.6856 37.3169 13.7026C37.1353 14.429 36.99 15.0647 36.881 15.6095C36.772 16.1544 36.6812 16.8263 36.6086 17.6254C37.2079 16.0635 37.8799 14.7923 38.6245 13.8116C39.3691 12.8309 40.0955 12.1317 40.8038 11.7139C41.5303 11.2962 42.1932 11.0874 42.7925 11.0874C43.9729 11.0874 44.5632 11.6776 44.5632 12.8581C44.5632 13.5664 44.3634 14.8467 43.9639 16.6992C43.6188 18.2792 43.4463 19.3235 43.4463 19.832C43.4463 20.5584 43.7096 20.9217 44.2363 20.9217C44.5995 20.9217 45.0263 20.7037 45.5166 20.2679C46.0252 19.8138 46.6971 19.0874 47.5325 18.0885C47.7505 17.8343 47.9956 17.7071 48.2681 17.7071C48.5042 17.7071 48.6858 17.8161 48.8129 18.034C48.9582 18.252 49.0308 18.5516 49.0308 18.933C49.0308 19.6595 48.8583 20.2225 48.5132 20.622C47.7323 21.5845 46.8878 22.3745 45.9798 22.992C45.0899 23.6095 44.0728 23.9182 42.9287 23.9182C42.0025 23.9182 41.3033 23.6549 40.8311 23.1282C40.3589 22.5834 40.1228 21.8025 40.1228 20.7854C40.1228 20.2769 40.2499 19.3689 40.5042 18.0613C40.7403 16.9171 40.8583 16.1271 40.8583 15.6912C40.8583 15.4007 40.7584 15.2554 40.5586 15.2554C40.3226 15.2554 39.9866 15.5641 39.5507 16.1816C39.133 16.7809 38.6971 17.58 38.2431 18.5789C37.8072 19.5777 37.4531 20.6311 37.1807 21.7389C36.9809 22.5925 36.7448 23.1736 36.4724 23.4824C36.2181 23.773 35.8095 23.9182 35.2465 23.9182Z" fill="#FAFBFF"/>
<path d="M57.8597 23.9182C55.6985 23.9182 53.8188 23.5278 52.2207 22.7469C50.6225 21.9478 49.3966 20.8218 48.543 19.3689C47.6895 17.916 47.2627 16.227 47.2627 14.3019C47.2627 11.6322 47.7621 9.26219 48.761 7.19182C49.778 5.12145 51.1492 3.52326 52.8745 2.39727C54.5998 1.25312 56.5158 0.681043 58.6225 0.681043C60.5839 0.681043 62.0731 1.18956 63.0901 2.20658C64.1071 3.20544 64.6156 4.53121 64.6156 6.18387C64.6156 7.29171 64.4159 8.1816 64.0163 8.85357C63.6349 9.52553 63.081 9.86151 62.3546 9.86151C61.8461 9.86151 61.4465 9.74346 61.1559 9.50737C60.8654 9.27127 60.7201 8.92621 60.7201 8.47218C60.7201 8.30873 60.7564 8.00907 60.829 7.5732C60.938 7.02837 60.9925 6.5925 60.9925 6.2656C60.9925 4.61293 60.1117 3.7866 58.35 3.7866C57.1514 3.7866 56.0073 4.17707 54.9176 4.958C53.8279 5.73893 52.9471 6.89216 52.2751 8.4177C51.6032 9.92507 51.2672 11.723 51.2672 13.8116C51.2672 15.9909 51.8756 17.6799 53.0924 18.8785C54.3092 20.059 56.1071 20.6492 58.4863 20.6492C59.6667 20.6492 60.8563 20.5039 62.0549 20.2134C63.2717 19.9046 64.6157 19.4415 66.0867 18.824C66.3591 18.7151 66.5861 18.6606 66.7677 18.6606C67.0583 18.6606 67.2763 18.7696 67.4215 18.9875C67.5668 19.2054 67.6395 19.4869 67.6395 19.832C67.6395 20.9398 67.0402 21.7571 65.8415 22.2837C64.5521 22.8467 63.2082 23.2644 61.8097 23.5369C60.4295 23.7911 59.1128 23.9182 57.8597 23.9182Z" fill="#FAFBFF"/>
<path d="M79.1295 15.4188C79.3656 15.4188 79.5472 15.5369 79.6744 15.773C79.8015 16.0091 79.8651 16.3087 79.8651 16.6719C79.8651 17.5437 79.6017 18.0613 79.075 18.2247C77.9854 18.6061 76.7867 18.824 75.4791 18.8785C75.1341 20.4041 74.453 21.6299 73.436 22.5562C72.419 23.4642 71.2658 23.9182 69.9763 23.9182C68.8866 23.9182 67.9513 23.6549 67.1704 23.1282C66.4076 22.6016 65.8265 21.9024 65.4269 21.0306C65.0274 20.1589 64.8276 19.2145 64.8276 18.1975C64.8276 16.8172 65.091 15.5914 65.6176 14.5198C66.1443 13.4302 66.8708 12.5857 67.797 11.9864C68.7232 11.3689 69.7493 11.0601 70.8753 11.0601C72.2555 11.0601 73.3634 11.5414 74.1988 12.504C75.0524 13.4483 75.5518 14.6197 75.6971 16.0181C76.5506 15.9637 77.5677 15.782 78.7481 15.4733C78.8934 15.437 79.0206 15.4188 79.1295 15.4188ZM70.1942 21.0306C70.7754 21.0306 71.2748 20.7945 71.6925 20.3223C72.1284 19.8501 72.419 19.1691 72.5643 18.2792C72.0013 17.8978 71.5654 17.3984 71.2567 16.7809C70.9661 16.1634 70.8208 15.5096 70.8208 14.8195C70.8208 14.5289 70.848 14.2383 70.9025 13.9478H70.7663C70.0399 13.9478 69.4315 14.3019 68.9411 15.0102C68.4689 15.7003 68.2328 16.681 68.2328 17.9523C68.2328 18.9512 68.4235 19.7139 68.8049 20.2406C69.2045 20.7673 69.6676 21.0306 70.1942 21.0306Z" fill="#FAFBFF"/>
<path d="M79.4611 23.9182C78.771 23.9182 78.2806 23.555 77.9901 22.8286C77.7176 22.1021 77.5814 20.9398 77.5814 19.3416C77.5814 16.9807 77.9174 14.7378 78.5894 12.6129C78.7528 12.0863 79.0162 11.7049 79.3794 11.4688C79.7608 11.2145 80.2874 11.0874 80.9594 11.0874C81.3226 11.0874 81.5769 11.1328 81.7222 11.2236C81.8675 11.3144 81.9401 11.4869 81.9401 11.7412C81.9401 12.0318 81.8039 12.6856 81.5315 13.7026C81.3499 14.429 81.2046 15.0647 81.0956 15.6095C80.9866 16.1544 80.8958 16.8263 80.8232 17.6254C81.4225 16.0635 82.0945 14.7923 82.8391 13.8116C83.5837 12.8309 84.3101 12.1317 85.0184 11.7139C85.7449 11.2962 86.4078 11.0874 87.0071 11.0874C88.1875 11.0874 88.7778 11.6776 88.7778 12.8581C88.7778 13.5664 88.578 14.8467 88.1785 16.6992C87.8334 18.2792 87.6609 19.3235 87.6609 19.832C87.6609 20.5584 87.9242 20.9217 88.4509 20.9217C88.8141 20.9217 89.2409 20.7037 89.7312 20.2679C90.2398 19.8138 90.9117 19.0874 91.7471 18.0885C91.9651 17.8343 92.2103 17.7071 92.4827 17.7071C92.7188 17.7071 92.9004 17.8161 93.0275 18.034C93.1728 18.252 93.2454 18.5516 93.2454 18.933C93.2454 19.6595 93.0729 20.2225 92.7278 20.622C91.9469 21.5845 91.1024 22.3745 90.1944 22.992C89.3045 23.6095 88.2874 23.9182 87.1433 23.9182C86.2171 23.9182 85.5179 23.6549 85.0457 23.1282C84.5735 22.5834 84.3374 21.8025 84.3374 20.7854C84.3374 20.2769 84.4645 19.3689 84.7188 18.0613C84.9549 16.9171 85.0729 16.1271 85.0729 15.6912C85.0729 15.4007 84.973 15.2554 84.7733 15.2554C84.5372 15.2554 84.2012 15.5641 83.7653 16.1816C83.3476 16.7809 82.9117 17.58 82.4577 18.5789C82.0218 19.5777 81.6677 20.6311 81.3953 21.7389C81.1955 22.5925 80.9594 23.1736 80.687 23.4824C80.4327 23.773 80.0241 23.9182 79.4611 23.9182Z" fill="#FAFBFF"/>
<path d="M92.9756 23.9182C92.2854 23.9182 91.7951 23.555 91.5045 22.8286C91.2321 22.1021 91.0959 20.9398 91.0959 19.3416C91.0959 16.9807 91.4319 14.7378 92.1038 12.6129C92.2673 12.0863 92.5306 11.7049 92.8938 11.4688C93.2752 11.2145 93.8019 11.0874 94.4739 11.0874C94.8371 11.0874 95.0913 11.1328 95.2366 11.2236C95.3819 11.3144 95.4546 11.4869 95.4546 11.7412C95.4546 12.0318 95.3184 12.6856 95.0459 13.7026C94.8643 14.429 94.719 15.0647 94.6101 15.6095C94.5011 16.1544 94.4103 16.8263 94.3377 17.6254C94.937 16.0635 95.6089 14.7923 96.3535 13.8116C97.0982 12.8309 97.8246 12.1317 98.5329 11.7139C99.2593 11.2962 99.9222 11.0874 100.522 11.0874C101.702 11.0874 102.292 11.6776 102.292 12.8581C102.292 13.5664 102.092 14.8467 101.693 16.6992C101.348 18.2792 101.175 19.3235 101.175 19.832C101.175 20.5584 101.439 20.9217 101.965 20.9217C102.329 20.9217 102.755 20.7037 103.246 20.2679C103.754 19.8138 104.426 19.0874 105.262 18.0885C105.48 17.8343 105.725 17.7071 105.997 17.7071C106.233 17.7071 106.415 17.8161 106.542 18.034C106.687 18.252 106.76 18.5516 106.76 18.933C106.76 19.6595 106.587 20.2225 106.242 20.622C105.461 21.5845 104.617 22.3745 103.709 22.992C102.819 23.6095 101.802 23.9182 100.658 23.9182C99.7315 23.9182 99.0323 23.6549 98.5601 23.1282C98.0879 22.5834 97.8518 21.8025 97.8518 20.7854C97.8518 20.2769 97.979 19.3689 98.2332 18.0613C98.4693 16.9171 98.5874 16.1271 98.5874 15.6912C98.5874 15.4007 98.4875 15.2554 98.2877 15.2554C98.0516 15.2554 97.7156 15.5641 97.2798 16.1816C96.8621 16.7809 96.4262 17.58 95.9722 18.5789C95.5363 19.5777 95.1822 20.6311 94.9097 21.7389C94.71 22.5925 94.4739 23.1736 94.2014 23.4824C93.9472 23.773 93.5386 23.9182 92.9756 23.9182Z" fill="#FAFBFF"/>
<path d="M116.706 17.7071C116.942 17.7071 117.123 17.8161 117.251 18.034C117.396 18.252 117.468 18.5516 117.468 18.933C117.468 19.6595 117.296 20.2225 116.951 20.622C116.279 21.4392 115.325 22.1929 114.09 22.8831C112.874 23.5732 111.566 23.9182 110.168 23.9182C108.261 23.9182 106.781 23.4007 105.727 22.3655C104.674 21.3303 104.147 19.9137 104.147 18.1158C104.147 16.8626 104.411 15.7003 104.937 14.6288C105.464 13.5391 106.19 12.6765 107.117 12.0408C108.061 11.4052 109.123 11.0874 110.304 11.0874C111.357 11.0874 112.202 11.4052 112.837 12.0408C113.473 12.6583 113.791 13.5028 113.791 14.5743C113.791 15.8274 113.337 16.908 112.429 17.8161C111.539 18.706 110.022 19.4143 107.879 19.941C108.333 20.7764 109.196 21.1941 110.467 21.1941C111.285 21.1941 112.211 20.9126 113.246 20.3496C114.299 19.7684 115.207 19.0147 115.97 18.0885C116.188 17.8343 116.433 17.7071 116.706 17.7071ZM109.841 13.7571C109.169 13.7571 108.597 14.1475 108.125 14.9285C107.67 15.7094 107.443 16.6538 107.443 17.7616V17.8161C108.515 17.5618 109.359 17.1805 109.977 16.6719C110.594 16.1634 110.903 15.5732 110.903 14.9012C110.903 14.5562 110.803 14.2838 110.604 14.084C110.422 13.866 110.168 13.7571 109.841 13.7571Z" fill="#FAFBFF"/>
<path d="M120.454 23.9182C118.674 23.9182 117.284 23.4188 116.286 22.42C115.305 21.4029 114.814 20.0681 114.814 18.4154C114.814 16.9444 115.105 15.6549 115.686 14.5471C116.267 13.4393 117.021 12.5857 117.947 11.9864C118.874 11.387 119.845 11.0874 120.862 11.0874C121.861 11.0874 122.633 11.387 123.178 11.9864C123.741 12.5675 124.022 13.3212 124.022 14.2474C124.022 15.0102 123.85 15.6549 123.505 16.1816C123.178 16.7083 122.742 16.9716 122.197 16.9716C121.852 16.9716 121.57 16.8899 121.353 16.7264C121.153 16.563 121.053 16.336 121.053 16.0454C121.053 15.9183 121.071 15.773 121.107 15.6095C121.144 15.4461 121.171 15.328 121.189 15.2554C121.28 14.983 121.325 14.7287 121.325 14.4926C121.325 14.2565 121.262 14.0749 121.135 13.9478C121.026 13.8206 120.862 13.7571 120.644 13.7571C120.227 13.7571 119.836 13.9478 119.473 14.3292C119.11 14.6924 118.819 15.1918 118.601 15.8274C118.383 16.4631 118.274 17.1623 118.274 17.9251C118.274 20.0318 119.191 21.0851 121.026 21.0851C121.77 21.0851 122.569 20.8399 123.423 20.3496C124.295 19.8411 125.148 19.0874 125.984 18.0885C126.202 17.8343 126.447 17.7071 126.719 17.7071C126.955 17.7071 127.137 17.8161 127.264 18.034C127.409 18.252 127.482 18.5516 127.482 18.933C127.482 19.6231 127.309 20.1861 126.964 20.622C126.111 21.6753 125.085 22.4926 123.886 23.0738C122.706 23.6367 121.561 23.9182 120.454 23.9182Z" fill="#FAFBFF"/>
<path d="M129.908 13.6754C129.871 14.5834 129.853 15.2917 129.853 15.8002C129.853 17.1078 129.917 18.1339 130.044 18.8785C130.189 19.605 130.416 20.1316 130.725 20.4585C131.052 20.7673 131.497 20.9217 132.06 20.9217C132.35 20.9217 132.695 20.8309 133.095 20.6492C133.495 20.4676 133.858 20.2315 134.185 19.941C134.384 19.7593 134.584 19.6685 134.784 19.6685C135.002 19.6685 135.174 19.7957 135.302 20.0499C135.447 20.286 135.52 20.5766 135.52 20.9217C135.52 21.2667 135.447 21.6027 135.302 21.9296C135.174 22.2565 134.975 22.5289 134.702 22.7469C133.758 23.5278 132.686 23.9182 131.488 23.9182C129.762 23.9182 128.5 23.2009 127.701 21.7661C126.902 20.3133 126.502 18.4245 126.502 16.0999C126.502 15.3008 126.53 14.4926 126.584 13.6754H125.522C124.977 13.6754 124.605 13.5755 124.405 13.3757C124.223 13.1759 124.132 12.8581 124.132 12.4222C124.132 11.4052 124.541 10.8967 125.358 10.8967H126.911C127.22 8.89897 127.692 7.07377 128.328 5.42111C128.963 3.76844 129.726 2.45176 130.616 1.47105C131.524 0.490351 132.496 0 133.531 0C134.294 0 134.893 0.335981 135.329 1.00794C135.765 1.67991 135.983 2.5244 135.983 3.54143C135.983 6.35641 134.802 8.80816 132.441 10.8967H135.492C135.783 10.8967 135.992 10.9603 136.119 11.0874C136.246 11.2145 136.31 11.4506 136.31 11.7957C136.31 13.0488 135.283 13.6754 133.231 13.6754H129.908ZM132.795 2.61521C132.523 2.61521 132.214 2.96027 131.869 3.65039C131.542 4.32236 131.224 5.26674 130.916 6.48353C130.625 7.68217 130.38 9.01702 130.18 10.4881C131.252 9.56185 132.051 8.52666 132.577 7.38251C133.122 6.2202 133.395 5.16685 133.395 4.22247C133.395 3.15096 133.195 2.61521 132.795 2.61521Z" fill="#FAFBFF"/>
<path d="M24.1907 1.19934C24.6992 1.27198 25.0442 1.42635 25.2259 1.66245C25.4256 1.89854 25.5255 2.20728 25.5255 2.58866C25.5255 3.84178 24.8535 4.42294 23.5096 4.33214L22.5562 4.25041C21.4846 4.15961 20.4131 4.08696 19.3416 4.03248C18.2883 3.97799 17.1805 3.95075 16.0181 3.95075H14.7923C14.5743 6.6386 14.3473 9.09036 14.1112 11.306L18.7968 11.2243C19.4688 11.2243 19.9137 11.3423 20.1316 11.5784C20.3677 11.8145 20.4858 12.1324 20.4858 12.5319C20.4858 13.1494 20.3042 13.6397 19.941 14.003C19.5777 14.348 19.0601 14.5205 18.3882 14.5205H13.7298L13.5664 15.6919C13.185 18.6885 12.3677 20.8225 11.1146 22.0937C9.87967 23.365 8.17252 24.0007 5.99318 24.0007C4.75822 24.0007 3.62315 23.7373 2.58797 23.2107C1.55278 22.6658 0.79001 22.012 0.299659 21.2493C0.0998864 20.9405 0 20.5682 0 20.1323C0 19.6965 0.0998864 19.3151 0.299659 18.9882C0.517593 18.6613 0.78093 18.4978 1.08967 18.4978C1.3076 18.4978 1.51646 18.5705 1.71623 18.7158C1.93416 18.8611 2.20658 19.1426 2.53348 19.5603C3.40522 20.7044 4.48581 21.2765 5.77525 21.2765C6.81043 21.2765 7.67309 20.8588 8.36321 20.0234C9.0715 19.1698 9.52553 17.835 9.7253 16.0188L9.88875 14.5205H8.58115C8.16344 14.5205 7.80022 14.4025 7.49148 14.1664C7.2009 13.9303 7.05561 13.5943 7.05561 13.1585C7.05561 12.5955 7.2009 12.1687 7.49148 11.8781C7.78206 11.5694 8.20884 11.415 8.77184 11.415C9.28035 11.415 9.77978 11.4059 10.2701 11.3877C10.4881 9.39002 10.7242 6.9655 10.9784 4.1142C9.01701 4.29581 7.63677 4.61363 6.83768 5.06766C6.03859 5.52169 5.63904 6.19365 5.63904 7.08355C5.63904 7.70103 5.82065 8.29127 6.18387 8.85426C6.29284 9.01772 6.34732 9.18117 6.34732 9.34462C6.34732 9.67152 6.16571 9.9621 5.80249 10.2164C5.43927 10.4524 5.03064 10.5705 4.57661 10.5705C4.08626 10.5705 3.66855 10.4252 3.32349 10.1346C3.10556 9.95301 2.8967 9.58071 2.69693 9.01771C2.49716 8.45472 2.39727 7.82816 2.39727 7.13804C2.39727 4.88605 3.55051 3.25155 5.85697 2.23452C8.1816 1.2175 11.5687 0.708984 16.0181 0.708984C19.1055 0.708984 21.8297 0.872435 24.1907 1.19934Z" fill="#FAFBFF"/>
</svg>
