<svg width="25" height="24" viewBox="0 0 25 24" fill="none" xmlns="http://www.w3.org/2000/svg">
<path d="M20.1 10.928C20.0995 10.9276 20.0992 10.9271 20.0988 10.9268L13.5721 4.40027C13.2939 4.12195 12.924 3.96875 12.5306 3.96875C12.1371 3.96875 11.7672 4.12195 11.4889 4.40027L4.96559 10.9235C4.9634 10.9257 4.96108 10.928 4.959 10.9302C4.38771 11.5048 4.38869 12.437 4.96181 13.0101C5.22365 13.2721 5.56935 13.4237 5.93911 13.4397C5.95424 13.4412 5.96938 13.4419 5.98464 13.4419H6.24465V18.2449C6.24465 19.1955 7.01809 19.9688 7.96865 19.9688H10.5221C10.781 19.9688 10.9909 19.7588 10.9909 19.5V15.7344C10.9909 15.3007 11.3438 14.9479 11.7775 14.9479H13.2836C13.7173 14.9479 14.0701 15.3007 14.0701 15.7344V19.5C14.0701 19.7588 14.2799 19.9688 14.5389 19.9688H17.0923C18.043 19.9688 18.8163 19.1955 18.8163 18.2449V13.4419H19.0575C19.4509 13.4419 19.8207 13.2887 20.0992 13.0103C20.6729 12.4363 20.6731 11.5023 20.1 10.928ZM19.4362 12.3474C19.335 12.4486 19.2005 12.5044 19.0575 12.5044H18.3476C18.0887 12.5044 17.8788 12.7143 17.8788 12.9732V18.2449C17.8788 18.6785 17.526 19.0313 17.0923 19.0313H15.0076V15.7344C15.0076 14.7838 14.2343 14.0104 13.2836 14.0104H11.7775C10.8268 14.0104 10.0534 14.7838 10.0534 15.7344V19.0313H7.96865C7.53506 19.0313 7.18215 18.6785 7.18215 18.2449V12.9732C7.18215 12.7143 6.97231 12.5044 6.7134 12.5044H6.01564C6.00832 12.5039 6.00112 12.5036 5.99367 12.5034C5.85402 12.501 5.72304 12.4456 5.6249 12.3473C5.41616 12.1386 5.41616 11.7988 5.6249 11.59C5.62502 11.59 5.62502 11.5899 5.62514 11.5897L5.62551 11.5894L12.152 5.06311C12.2531 4.96192 12.3875 4.90625 12.5306 4.90625C12.6735 4.90625 12.8079 4.96192 12.9091 5.06311L19.4341 11.588C19.4351 11.589 19.4362 11.59 19.4372 11.591C19.6448 11.8001 19.6445 12.1391 19.4362 12.3474Z" fill="#767D85"/>
</svg>
