<svg width="18" height="23" viewBox="0 0 18 23" fill="none" xmlns="http://www.w3.org/2000/svg">
<path d="M2.49841 6.59536C2.07724 3.22603 4.70442 0.25 8.09998 0.25H9.80289C11.4237 0.25 12.8697 0.927394 13.8933 2.00186C12.2859 2.05805 11 3.37886 11 5C11 6.65685 12.3431 8 14 8C14.4764 8 14.9269 7.88895 15.3269 7.69133C15.3738 8.49036 15.7258 9.24969 16.3229 9.8042L16.3668 9.84496C17.9801 11.3432 18.2932 13.7799 17.1111 15.6373C16.2736 16.9532 14.822 17.75 13.2623 17.75H5.04147C3.23324 17.75 1.58394 16.7169 0.794769 15.09L0.691418 14.8769C-0.155232 13.1315 0.240863 11.0375 1.66654 9.72195C2.35455 9.08706 2.69388 8.15916 2.57776 7.23021L2.49841 6.59536Z" fill="white"/>
<path d="M5.73339 19.4C6.06476 19.1515 6.53486 19.2186 6.78339 19.55L7.08339 19.95C8.13339 21.35 10.2334 21.35 11.2834 19.95L11.5834 19.55C11.8319 19.2186 12.302 19.1515 12.6334 19.4C12.9648 19.6485 13.0319 20.1186 12.7834 20.45L12.4834 20.85C10.8334 23.05 7.53339 23.05 5.88339 20.85L5.58339 20.45C5.33487 20.1186 5.40202 19.6485 5.73339 19.4Z" fill="white"/>
<path d="M16.1831 5C16.1831 6.10457 15.2877 7 14.1831 7C13.0785 7 12.1831 6.10457 12.1831 5C12.1831 3.89543 13.0785 3 14.1831 3C15.2877 3 16.1831 3.89543 16.1831 5Z" fill="white"/>
</svg>
