<svg width="24" height="24" viewBox="0 0 24 24" fill="none" xmlns="http://www.w3.org/2000/svg">
<path d="M13.7973 18.75H10.6711C10.3258 18.75 10.0459 19.0298 10.0459 19.375C10.0459 19.7202 10.3258 20 10.6711 20H13.7973C14.1426 20 14.4226 19.7202 14.4226 19.375C14.4226 19.0298 14.1426 18.75 13.7973 18.75Z" fill="#001347"/>
<path d="M18.4071 17.2293L17.2565 14.8355V9.02019C17.2565 6.25206 15.0036 4 12.2344 4C9.46515 4 7.21224 6.25206 7.21224 9.02019V14.8355L6.06168 17.2293C5.96858 17.423 5.98155 17.6509 6.09599 17.8328C6.21043 18.0146 6.4103 18.125 6.62524 18.125H17.8435C18.0584 18.125 18.2583 18.0146 18.3727 17.8328C18.4872 17.6509 18.5001 17.423 18.4071 17.2293ZM7.6193 16.875L8.40105 15.2486C8.44165 15.1641 8.46271 15.0716 8.46271 14.9779V9.02019C8.46271 6.94131 10.1547 5.25 12.2344 5.25C14.3141 5.25 16.006 6.94131 16.006 9.02019V14.9779C16.006 15.0716 16.0271 15.1641 16.0677 15.2486L16.8494 16.875H7.6193Z" fill="#001347"/>
</svg>
