<svg width="47" height="47" viewBox="0 0 47 47" fill="none" xmlns="http://www.w3.org/2000/svg">
<circle cx="23.5" cy="23.5" r="22.5" stroke="#001347" stroke-width="2"/>
<path d="M35.1907 12.4904C35.6992 12.563 36.0442 12.7174 36.2259 12.9535C36.4256 13.1896 36.5255 13.4983 36.5255 13.8797C36.5255 15.1328 35.8535 15.714 34.5096 15.6232L33.5562 15.5414C32.4846 15.4506 31.4131 15.378 30.3416 15.3235C29.2883 15.269 28.1805 15.2418 27.0181 15.2418H25.7923C25.5743 17.9296 25.3473 20.3814 25.1112 22.597L29.7968 22.5153C30.4688 22.5153 30.9137 22.6334 31.1316 22.8695C31.3677 23.1055 31.4858 23.4234 31.4858 23.8229C31.4858 24.4404 31.3042 24.9307 30.941 25.294C30.5777 25.639 30.0601 25.8116 29.3882 25.8116H24.7298L24.5664 26.983C24.185 29.9795 23.3677 32.1135 22.1146 33.3848C20.8797 34.656 19.1725 35.2917 16.9932 35.2917C15.7582 35.2917 14.6232 35.0283 13.588 34.5017C12.5528 33.9568 11.79 33.303 11.2997 32.5403C11.0999 32.2315 11 31.8592 11 31.4234C11 30.9875 11.0999 30.6061 11.2997 30.2792C11.5176 29.9523 11.7809 29.7889 12.0897 29.7889C12.3076 29.7889 12.5165 29.8615 12.7162 30.0068C12.9342 30.1521 13.2066 30.4336 13.5335 30.8513C14.4052 31.9954 15.4858 32.5675 16.7752 32.5675C17.8104 32.5675 18.6731 32.1498 19.3632 31.3144C20.0715 30.4608 20.5255 29.126 20.7253 27.3099L20.8888 25.8116H19.5811C19.1634 25.8116 18.8002 25.6935 18.4915 25.4574C18.2009 25.2213 18.0556 24.8853 18.0556 24.4495C18.0556 23.8865 18.2009 23.4597 18.4915 23.1691C18.7821 22.8604 19.2088 22.706 19.7718 22.706C20.2804 22.706 20.7798 22.6969 21.2701 22.6788C21.4881 20.681 21.7242 18.2565 21.9784 15.4052C20.017 15.5868 18.6368 15.9047 17.8377 16.3587C17.0386 16.8127 16.639 17.4847 16.639 18.3746C16.639 18.992 16.8207 19.5823 17.1839 20.1453C17.2928 20.3087 17.3473 20.4722 17.3473 20.6356C17.3473 20.9625 17.1657 21.2531 16.8025 21.5074C16.4393 21.7435 16.0306 21.8615 15.5766 21.8615C15.0863 21.8615 14.6686 21.7162 14.3235 21.4256C14.1056 21.244 13.8967 20.8717 13.6969 20.3087C13.4972 19.7457 13.3973 19.1192 13.3973 18.4291C13.3973 16.1771 14.5505 14.5426 16.857 13.5255C19.1816 12.5085 22.5687 12 27.0181 12C30.1055 12 32.8297 12.1635 35.1907 12.4904Z" fill="#001347"/>
</svg>
